<?xml version="1.0" encoding="utf-8"?>
<!-- Generator: Adobe Illustrator 21.0.0, SVG Export Plug-In . SVG Version: 6.00 Build 0)  -->
<svg version="1.1" id="Layer_1" xmlns="http://www.w3.org/2000/svg" xmlns:xlink="http://www.w3.org/1999/xlink" x="0px" y="0px"
	 width="62.5px" height="52px" viewBox="0 0 62.5 52" style="enable-background:new 0 0 62.5 52;" xml:space="preserve">
<style type="text/css">
	.st0{fill:none;enable-background:new    ;}
	.st1{fill:#232323;}
</style>
<path class="st0" d="z"/>
<g>
	<path class="st1" d="M12.2,18.9c0.1,3-0.3,6.7,0.7,9.6c0.1,0.2,0.3,0.5,0.5,0.5c4.8,0.9,10.1,0.6,14.9,0.7c6,0.1,12.1,0.2,18.1,0.1
		c4.7-0.1,3-4.9,3-8.8c0-3.7-0.4-7.4-0.4-11.1c0-1.4,0.6-2.9,0-4.2c-0.1-0.2-0.4-0.4-0.7-0.4c-5.9,0.6-12.2,0-18.2,0
		c-3.3,0-6.7,0-10-0.1c-2.4-0.1-4.9-0.7-7.2,0.2c-0.4,0.2-0.6,0.6-0.5,1c-0.2,0.1-0.3,0.3-0.3,0.6C12.2,10.9,12.2,14.9,12.2,18.9z
		 M21.8,6.8c2.5,0.1,5,0.1,7.5,0.1c5.3,0,10.6,0,15.8,0.1c1.9,0.1,2.1-0.1,2.4,1.5c0.4,1.9,0.1,4.3,0.2,6.2c0.1,2.4,0.1,4.8,0.2,7.2
		c0,1.3,0.2,2.7,0,4c-0.3,1.7-0.5,2.1-2,2.5c-3.2,0.8-7.7,0-10.9,0c-4.1,0-8.3-0.1-12.4-0.3c-1.8-0.1-4,0.1-5.8-0.2
		c-1.5-0.3-1.8,0.5-2.7-1.6c-0.3-0.9-0.2-2.3-0.2-3.2c-0.3-5.3-0.1-10.7-0.2-16c0-0.1,0-0.1,0-0.2C16.1,5.9,19.4,6.7,21.8,6.8z"/>
	<path class="st1" d="M62.2,44.6c-3-3.7-5.5-7.7-7.7-12c-0.1-0.1-0.1-0.2-0.2-0.3c0.7-4.6-0.2-10.1-0.3-14.6c0-2.7-0.1-5.5-0.1-8.2
		c0-2,0.4-4.9-0.2-6.8c-0.8-2.9-4.1-1.8-6.5-1.8c-5.1,0-10.2-0.2-15.3-0.4c-5.3-0.2-10.6-0.3-16-0.2c-2.5,0-6.9-1-8.4,1.8
		C6.9,3.3,7.3,4.8,7.3,6.3c0.1,2.8,0.1,5.6,0.1,8.4c0,6.1-0.1,12.1,0,18.2c-0.1,0.2-0.1,0.5,0,0.7C5,37.1,2.2,40.9,0.5,44.7
		c-0.7,1.7-0.9,2.9,0.5,4.3c1.2,1.2,3.3,1.7,4.9,1.7c4.4,0.1,8.7-0.2,13.1-0.1c9.1,0.1,18.2,0.1,27.3,0.2c2.2,0,4.4,0.1,6.6,0.2
		c1.5,0,4.3,0.7,5.8,0.1c2-0.8,2.5-3.5,3.7-5.2C62.7,45.5,62.5,45,62.2,44.6z M9.4,4.6C9.5,3.7,9.1,3,10.1,2.5
		c0.6-0.4,3.6-0.1,4.3-0.1C25.8,2.1,37.3,2.9,48.7,3c0.5,0,1,0,1.5,0c1.5-0.5,2,0,1.6,1.6c0.4,1.1,0.1,2.9,0.1,4.1
		c0.1,3,0.1,6,0.2,9c0.1,3.3,0.1,6.6,0.2,9.9c0,1.7,0.6,3.7-1.3,4.6c-1.1,0.5-3.7,0-4.9,0c-12.1,0-24.3,0-36.4,0.1
		c-0.1-6.1,0-12.3,0-18.4C9.5,10.8,9.1,7.6,9.4,4.6z M9.4,34.4c7.5,0,15.1,0,22.6,0c3.8,0,7.6,0,11.4,0c2.9,0,6.6,0.6,9.5-0.1
		c1.7,3.3,3.6,6.5,5.8,9.5c0.4,0.5,0.6,1.1,0.7,1.7c-4.5,0.5-9.1,0.2-13.6,0.1c-5,0-10.1-0.1-15.1-0.1c-9.4-0.1-18.7-0.1-28.1-0.2
		c0,0,0-0.1,0-0.1C3.7,41.5,7.2,37.5,9.4,34.4z M57.7,48.9c-1.4,0.6-4,0-5.5,0c-2-0.1-3.9-0.1-5.9-0.1c-4.4-0.1-8.8,0.1-13.2,0
		c-8.1-0.1-16.3-0.4-24.4-0.2c-2,0.1-5.1,0-5.9-1.7c9.9,0.1,19.8,0.1,29.7,0.2c8.7,0.1,18.1,1.1,26.8,0
		C59.1,47.9,58.5,48.5,57.7,48.9z"/>
	<path class="st1" d="M18.8,12.8c7.6,0.1,15.2,0.3,22.7,0.4c1.1,0,1.1-1.7,0-1.7c-7.6-0.1-15.2-0.3-22.7-0.4
		C17.7,11.1,17.7,12.8,18.8,12.8z"/>
	<path class="st1" d="M18.8,16.7c-1.1,0-1.1,1.7,0,1.7c7.8-0.3,15.5-0.2,23.3,0.2c1.1,0.1,1.1-1.6,0-1.7
		C34.3,16.5,26.5,16.4,18.8,16.7z"/>
	<path class="st1" d="M18.8,23.4c6.9,0.1,13.8,0.2,20.6,0.3c1.1,0,1.1-1.7,0-1.7c-6.9-0.1-13.8-0.2-20.6-0.3
		C17.7,21.7,17.7,23.4,18.8,23.4z"/>
	<path class="st1" d="M12.6,37.6c0.7,0,1.4,0,2.1,0c1.1,0,1.1-1.7,0-1.7c-0.7,0-1.4,0-2.1,0C11.5,35.9,11.5,37.6,12.6,37.6z"/>
	<path class="st1" d="M12.3,40.2c0.7,0,1.4,0,2.1,0c1.1,0,1.1-1.7,0-1.7c-0.7,0-1.4,0-2.1,0C11.2,38.5,11.2,40.2,12.3,40.2z"/>
	<path class="st1" d="M17.8,40.7c0.7,0,1.4-0.1,2.1-0.1c1.1,0,1.1-1.7,0-1.7c-0.7,0-1.4,0.1-2.1,0.1C16.7,39,16.7,40.7,17.8,40.7z"
		/>
	<path class="st1" d="M23.1,40.4c0.7,0,1.4,0,2.1,0c1.1,0,1.1-1.7,0-1.7c-0.7,0-1.4,0-2.1,0C22,38.7,22,40.4,23.1,40.4z"/>
	<path class="st1" d="M28.6,40.7c0.7,0,1.4,0,2.1,0c1.1,0,1.1-1.7,0-1.7c-0.7,0-1.4,0-2.1,0C27.5,39,27.5,40.7,28.6,40.7z"/>
	<path class="st1" d="M33.9,40.5c0.7,0,1.3,0.2,2,0.2c1.1,0,1.1-1.7,0-1.7c-0.7,0-1.3-0.2-2-0.2C32.8,38.8,32.8,40.5,33.9,40.5z"/>
	<path class="st1" d="M40.5,38.9c-0.5,0-1,0-1.5,0c-1.1,0-1.1,1.7,0,1.7c0.5,0,1,0,1.5,0C41.6,40.6,41.6,38.9,40.5,38.9z"/>
	<path class="st1" d="M44.6,38.6c-0.5,0-1,0-1.5,0c-1.1,0-1.1,1.7,0,1.7c0.5,0,1,0,1.5,0C45.7,40.3,45.7,38.6,44.6,38.6z"/>
	<path class="st1" d="M47.9,40.4c0.5,0,1,0,1.5,0c1.1,0,1.1-1.7,0-1.7c-0.5,0-1,0-1.5,0C46.8,38.7,46.8,40.4,47.9,40.4z"/>
	<path class="st1" d="M18.1,37.8c0.7,0,1.4,0,2.1,0c1.1,0,1.1-1.7,0-1.7c-0.7,0-1.4,0-2.1,0C17,36.1,17,37.8,18.1,37.8z"/>
	<path class="st1" d="M23.5,37.8c0.7,0,1.4-0.1,2.1-0.1c1.1,0,1.1-1.7,0-1.7c-0.7,0-1.4,0.1-2.1,0.1C22.5,36.1,22.4,37.8,23.5,37.8z
		"/>
	<path class="st1" d="M28.6,37.6c0.7,0,1.4,0,2.1,0c1.1,0,1.1-1.7,0-1.7c-0.7,0-1.4,0-2.1,0C27.5,35.9,27.5,37.6,28.6,37.6z"/>
	<path class="st1" d="M33.9,37.5c0.6,0,1.2,0.1,1.9,0.1c1.1,0,1.1-1.7,0-1.7c-0.6,0-1.2-0.1-1.9-0.1C32.8,35.8,32.8,37.5,33.9,37.5z
		"/>
	<path class="st1" d="M38.5,37.5c0.6,0,1.3,0,1.9,0c1.1,0,1.1-1.7,0-1.7c-0.6,0-1.3,0-1.9,0C37.4,35.8,37.4,37.5,38.5,37.5z"/>
	<path class="st1" d="M42.9,37.3c0.7,0,1.4,0,2.1,0c1.1,0,1.1-1.7,0-1.7c-0.7,0-1.4,0-2.1,0C41.8,35.6,41.8,37.3,42.9,37.3z"/>
	<path class="st1" d="M47.8,37.5c0,0,0.1,0,0.1,0c0,0,0,0,0.1,0c0.2,0.1,0.4,0.1,0.6,0.1c1.1,0,1.1-1.7,0-1.7c0,0-0.1,0-0.1,0
		c0,0,0,0-0.1,0c-0.2-0.1-0.4-0.1-0.6-0.1C46.7,35.8,46.7,37.5,47.8,37.5z M48.9,36.2C49,36.3,48.9,36.3,48.9,36.2L48.9,36.2z"/>
	<path class="st1" d="M23.5,43.9c5.4,0.3,10.8,0.1,16.2,0.1c1.1,0,1.1-1.7,0-1.7c-5.4,0-10.8,0.2-16.2-0.1
		C22.4,42.1,22.4,43.8,23.5,43.9z"/>
</g>
</svg>
