<?xml version="1.0" encoding="utf-8"?>
<!-- Generator: Adobe Illustrator 21.0.0, SVG Export Plug-In . SVG Version: 6.00 Build 0)  -->
<svg version="1.1" xmlns="http://www.w3.org/2000/svg" xmlns:xlink="http://www.w3.org/1999/xlink" x="0px" y="0px" width="42px"
	 height="56px" viewBox="0 0 42 56" style="enable-background:new 0 0 42 56;" xml:space="preserve">
<style type="text/css">
	.st0{display:none;}
	.st1{display:inline;}
	.st2{fill:#232323;}
</style>
<g id="Layer_1" class="st0">
	<path class="st1" d="M50.1,55.1c0.4-3.4,0.4-6.9,0.4-10.3l0-1.5c-0.1-10.8-0.3-21.7-0.4-32.3l0-0.1C50,5.8,49.9,0.5,49.8-4.7
		c0-0.3-0.1-0.6-0.3-0.8c-0.2-0.3-0.5-0.4-0.8-0.4C31.2-6.1,16.4-4.6,3.5-1.3C3.2-1.3,3-1.1,2.8-0.9c-0.1,0.3-0.1,0.7,0,1l0,0.1
		l0,0.2C2.8,0.8,2.9,1.1,3,1.3l0.1,0.1l0.1,0.2c1.3,13.1,1.4,26.3,0.2,39.3C3.3,42,3.1,43,3,44c-0.3,2.1-0.6,4.2-0.7,6.2
		c0,1,1,1.9,2,2.2c6,2.1,11.9,3.8,17.8,5.1l1.5,0.3c5,1.1,10.6,2.4,15.6,2l0.1,0l0.1,0c2.5,0.7,6.8-0.4,8.9-1.4
		C49.3,58.1,49.9,57,50.1,55.1z M41.8,11.8c-0.1,10.8-0.1,21.9-0.3,32.9c0,1.2,0,2.5,0,3.7c0,1.2,0,2.5,0,3.7c0,0.2,0,0.5,0,0.7
		c0,2.1,0.1,4.7-3.2,5.1c-0.3,0-0.7,0-1,0c-1.9,0-3.9-0.4-5.9-0.8c-0.7-0.1-1.5-0.3-2.2-0.4c-2.3-0.3-4.9-0.8-7.7-1.5
		c-4.8-1.1-9.6-2.6-14.1-4c-3.3-1.1-2.8-4-2.4-6.1c0.1-0.5,0.2-1,0.2-1.4C5.5,41.1,5.8,38.5,6,36L6,35.1c0.7-9.9,0.5-20.2-0.5-31.5
		L5.4,2.5l1.1,0.3c4.5,1.3,9.1,2,13.7,2.7c7.1,1.1,14.5,2.3,21.2,5.5l0.4,0.2L41.8,11.8z M22.2,3.1l-0.4-0.5c1,0.1,8.3,0.7,10.9,1
		l1.4,0.1c1.6,0.1,3.2,0.3,4.4,0.4l0.7,0v3.4l-1-0.4c-2.1-0.8-5.9-1.7-8.6-2.3L22.2,3.1z M48.1,51.7c0,3.4-0.3,4.8-1.1,5.1
		c-0.7,0.2-1.4,0.4-2.1,0.5l-0.2,0c-0.1,0-0.3,0.1-0.4,0.1h-0.9l0.2-0.9c0.2-0.8,0.3-1.8,0.3-2.9c0.1-7.2,0.1-14.4,0.2-21.6
		c0.1-7.2,0.1-14.4,0.2-21.6c0-0.4-0.3-0.9-0.5-1l-2.4-1.2l0.3-0.7c0,0,0-0.2,0-0.3V2.7c0-0.4-0.1-0.7-0.4-0.9
		c-0.3-0.2-0.8-0.3-1.1-0.2l-0.2,0C31.8,1.4,23.6,0.8,14.6,0L8.6-0.5l6-0.9c9.3-1.5,19.9-2.2,32.1-2.2h0.7l0,0.7
		c0.2,12.7,0.3,24.2,0.5,36.1c0,1.5,0,3.1,0.1,4.6c0.1,4.5,0.2,9.1,0,13.7L48.1,51.7z"/>
	<path class="st1" d="M31.9,17.8L31.9,17.8c-1.7-0.8-3.5-1-5.4-1.2c-1.1-0.1-2.1-0.2-3.2-0.4c-0.8-0.2-1.5-0.3-2.2-0.5
		c-2.3-0.6-4.7-1.1-7.1-1.1c-1,0-1,1-1,1.1s0,1.1,1,1.1c2.5,0,4.8,0.6,7.2,1.2c0.5,0.1,1,0.2,1.5,0.4c1,0.2,2.1,0.3,3.1,0.4
		c1.7,0.1,3.4,0.3,4.9,0.9c0.5,0.2,0.9,0.1,1.2-0.1c0.4-0.3,0.6-0.7,0.6-1.1C32.4,18.2,32.2,18,31.9,17.8z"/>
	<path class="st1" d="M27.8,25.3c-0.1-0.3-0.3-0.5-0.7-0.6c-3.3-0.8-6.1-1.2-8.7-1.4c-0.1,0-0.1,0-0.1,0c-0.2,0-0.4,0.1-0.6,0.2
		c-0.2,0.1-0.3,0.4-0.3,0.6c0,0.3,0.1,0.7,0.2,0.9c0.1,0.2,0.4,0.4,0.9,0.5c3.1,0.3,5.6,0.7,8,1.3c0.4,0.1,0.8,0,1-0.3
		C27.8,26.2,27.9,25.7,27.8,25.3z"/>
	<path class="st1" d="M27.4,48.6c-3.1-1-6.2-1.8-9.7-2.5c-0.1,0-0.2,0-0.2,0c-0.7,0-1.1,0.5-1.2,1.1c-0.1,0.3-0.1,0.9,0.8,1.1
		c3.1,0.6,6.4,1.4,9.8,2.6c0.8,0.3,1.1-0.4,1.2-0.6C28.3,49.6,28.1,48.8,27.4,48.6z"/>
</g>
<g id="Layer_2">
	<g>
		<path class="st2" d="M41.8,16.6c-0.1-3,0.6-7.9-0.6-10.7c-0.7-1.7-2.8-1.9-4.5-2.3C27.3,1,17.1,0.4,7.4,0C7.2,0,7,0,6.8,0.1
			c-2,1-4.1,1.5-5.7,3.2C0.9,3.5,0.9,3.7,0.8,3.9C0.6,4.1,0.3,4.3,0.3,4.8c0.2,14-0.9,27.9,0,41.8c0,0.4,0.3,0.7,0.6,0.9
			c0.1,0.2,0.3,0.4,0.6,0.5C11.7,50.3,21,54.5,31.4,56c0.7,0.1,1.2-0.3,1.3-1c0-0.4,0.1-0.7,0.1-1.1c0.6,0.1,1.2,0.2,1.8,0.2
			c0.6,0.1,1.1-0.2,1.1-0.8c0-0.5,0-0.9,0-1.4c0.6,0.1,1.3,0.1,1.9,0.2c0.5,0,0.9-0.4,0.9-0.9c0-0.4,0-0.9,0-1.3
			c0.6,0.1,1.1,0.2,1.7,0.3c0.7,0.1,1.2-0.3,1.3-1C41.9,38.4,42.2,27.5,41.8,16.6z M31.7,25.3c-0.1,3.1-0.2,6.1-0.2,9.2
			c-0.1,6.4-0.3,12.9-0.8,19.3c-9.8-1.7-18.7-5.6-28.4-7.8c-0.8-13.4,0.1-26.8,0-40.2c5.2,2,10.7,2.9,16,4.3
			c2.5,0.7,4.9,1.5,7.4,2.3c1.2,0.4,2.5,0.8,3.7,0.9c2.3,0.3,1.9-0.2,2.4,1.8C32.6,18.2,31.8,22.4,31.7,25.3z M33.6,12.6
			c0-0.3-0.4-0.7-0.7-0.7c-5.3-0.7-10.3-2.7-15.5-4C12.7,6.7,7.8,5.8,3.2,4.1C3.4,4,3.5,3.9,3.6,3.8c8.1,2,16.2,3.9,24.3,5.9
			c1.5,0.4,4.3,0.4,5.5,1.1c0.7,0.5,1.1,2,1.2,3.1c0.4,2.9,0.1,6.1,0.1,9c-0.2,9.8-0.5,19.6-0.8,29.4c-0.4,0-0.7-0.1-1.1-0.1
			c0.5-6.9,0.6-13.8,0.7-20.7C33.6,25.2,34.5,18.8,33.6,12.6z M35.4,10c-0.1-0.3-0.3-0.6-0.6-0.6C25.9,7.9,17,5.4,8.3,3.2
			c7.5,1.3,15,2.8,22.4,4.4c1.4,0.3,3.1,0.4,4.4,1c1.4,0.6,1,0.1,1.6,1.7c0.6,1.9,0.4,4.5,0.5,6.6c0.2,11.2,0.1,22.3-0.4,33.5
			c-0.3,0-0.7-0.1-1-0.1c0.1-5.3,0.2-10.7,0.3-16c0.1-4.7,0.1-9.4,0.2-14.1C36.3,16.7,36.1,13,35.4,10z M38.8,28.6
			C38.7,22,38.9,12,38.2,8.4c-0.1-0.3-0.3-1.1-0.6-1.1c-7.9-1.7-15.9-3.5-23.9-4.9c7.4,0.4,14.8,1.2,21.9,3c0.8,0.2,2.9,0.5,3.5,1.1
			c0.4,0.4,0.2,1.7,0.3,2.9c0.3,4.4,0.4,8.7,0.5,13.1c0.2,8.6-0.2,17.1-0.5,25.7c-0.3-0.1-0.6-0.1-0.9-0.2
			C38.8,41.5,38.9,35.1,38.8,28.6z"/>
		<path class="st2" d="M25.1,20.9c-2-0.9-4-1.1-6.2-1.3c-3.2-0.4-6.4-1-9.6-1.7c-1.3-0.3-1.8,1.7-0.5,1.9c2.5,0.5,5,1,7.5,1.4
			c2.6,0.4,5.4,0.3,7.8,1.4C25.3,23.2,26.3,21.5,25.1,20.9z"/>
		<path class="st2" d="M21.2,28c1.2,0.4,1.8-1.6,0.5-1.9c-3.2-1-6.6-1.1-9.9-1.8c-1.3-0.3-1.8,1.7-0.5,1.9C14.6,27,18,27.1,21.2,28z
			"/>
		<path class="st2" d="M22,46c-3.5-1.2-7-2.2-10.5-2.9c-1.3-0.3-1.8,1.7-0.5,1.9c3.6,0.8,7.1,1.8,10.5,2.9
			C22.7,48.4,23.2,46.4,22,46z"/>
	</g>
</g>
</svg>
