<?xml version="1.0" encoding="utf-8"?>
<!-- Generator: Adobe Illustrator 21.0.0, SVG Export Plug-In . SVG Version: 6.00 Build 0)  -->
<svg version="1.1" id="Layer_2" xmlns="http://www.w3.org/2000/svg" xmlns:xlink="http://www.w3.org/1999/xlink" x="0px" y="0px"
	 width="50px" height="60px" viewBox="0 0 50 60" style="enable-background:new 0 0 50 60;" xml:space="preserve">
<style type="text/css">
	.st0{fill:#232323;}
</style>
<g>
	<path class="st0" d="M50,53.2c-0.4-2.9-2.2-5.5-4.4-7.4c-1.9-1.6-4.5-3.1-7-3.5c-0.1,0-0.1,0-0.1,0c-0.5-1.4-0.9-2.9-1-4.4
		c-0.4-4.5,1.5-8.5,2.1-12.9c0.1-0.9,0.2-1.8,0.3-2.8c0-0.9-0.2-1.8-0.2-2.6c-0.1-1.1-0.1-2.2-0.3-3.3C39,15.1,38.5,14,38,12.9
		c-0.7-1.5-1.3-3.1-2.5-4.4c-0.2-0.2-0.4-0.5-0.7-0.7c-0.8-1.5-1.4-3-2.2-4.5c-0.1-0.2-0.3-0.4-0.5-0.4c-0.9-1.4-3-2-4.5-2.3
		c-2.2-0.5-4.5-0.5-6.5,0.5c-0.7-0.2-1.4-0.1-2.1,0c-0.4,0.1-0.8,0.1-1.2,0.2c-1.2-0.7-2.5-1.3-4-1.2c-1.5,0.1-3.1,0.6-4.3,1.4
		C6.8,3.3,7.1,6.8,7.2,9.7c0,0.1,0,0.2,0.1,0.4c-0.8,1.6-1.1,3.4-0.4,4.9c0,0,0,0.1,0,0.1c0.1,0.9,0.3,1.8,0.4,2.8
		c0.2,1,0.1,2-0.1,3c-0.4,2.2-1.3,4.2-1.5,6.4c-0.2,2.3,0.3,4.6,0.8,6.9C7,36.5,7.4,38.7,7.1,41c-0.2,1.6-0.5,3.8-2,4.8
		c-0.2,0.1-0.3,0.3-0.4,0.5c0,0-0.1,0.1-0.1,0.1c-1.3,1-2.4,2.6-3.2,4C0.5,52,0.2,53.7,0,55.6c-0.1,1.2,1.7,1.2,1.8,0
		C2,54.1,2.3,52.6,3,51.3c0.8-1.4,1.8-2.9,3.2-3.8c1.3-0.8,2.9-1.5,4.4-2c0.1,0,0.2-0.1,0.4-0.1c2.1,2.4,5.1,3.7,8.1,4.4
		c2.8,0.7,5.7,0.6,8.4-0.4c1.1-0.4,2.1-1,3-1.5c0.1,0.5,0.3,1,0.5,1.5c1.3,3.7,3.6,6.9,7,8.9c2,1.2,4.3,1.8,6.6,1.8
		c0.9,0,1.1-1,0.6-1.6c-2.9-3.6-4.3-8.2-5.6-12.6c-0.2-0.5-0.3-1.1-0.5-1.6c1.9,0.5,3.8,1.6,5.2,2.8c2,1.7,3.6,4,4,6.6
		c0.1,0.5,0.7,0.8,1.1,0.6C49.9,54.2,50.1,53.7,50,53.2z M27.5,2.4c0.7,0.2,4.4,1.2,2.9,2.4C30,5,29.5,5.2,29.1,5.4
		c-0.4,0.2-0.8,0.4-1.2,0.5c-0.8,0.2-1.9,0-2.7-0.2c-0.8-0.2-1.5-0.5-1.9-1.2c-0.4-0.6-0.7-1.2-0.8-1.9C24,1.9,25.8,2,27.5,2.4z
		 M32.1,27C32.1,27,32.1,27,32.1,27C32.1,27.1,32.1,27.1,32.1,27c0,0.2,0,0.3,0,0.4c0,0.2,0,0.3,0,0.5C32,28,32,28.2,32,28.5
		c0.2,3.1-1.3,5.8-3.1,8.2c-0.9,1.2-2.1,2.2-3.5,2.9c-1.3,0.7-3,1.5-4.4,1.2c-1.5-0.3-2.8-1.3-4-2.2c-1-0.7-2-1.5-2.8-2.4
		c-1.1-1.3-1.8-2.8-2.4-4.3c-0.6-1.4-0.8-2.9-0.9-4.4c-0.2-3.6,0.4-7.2,0-10.8c1.1-0.3,2.1-0.8,3.1-1.1c1.8-0.6,3.8-0.8,5.6-1.2
		c1.9-0.4,3.8-1.1,5.6-2c1.1-0.6,2.1-1.3,2.9-2.2c1,2.5,2.1,5,3.4,7.4c-0.1,0.1-0.1,0.2-0.1,0.4C31.2,20.9,31.5,24.1,32.1,27z
		 M11.2,8c0.5,0,0.9,0,1.3,0c0.9,0,1.8-0.2,2.6-0.5c0.9-0.4,1.7-1.2,2.3-2c0.8,0,1.6,0,2.3,0c0.7,0,1.4,0.1,2.1,0.3
		c0.4,0.4,0.8,0.8,1.3,1.1c1,0.5,2,0.7,3.1,0.8c0.4,0,0.7,0.1,1.1,0.1c-0.7,1.5-2.1,2.5-3.6,3.2c-1.6,0.8-3.4,1.4-5.1,1.7
		c-1.7,0.4-3.6,0.6-5.3,1.1c-1.3,0.4-2.8,1.2-4.2,1.4c0,0,0-0.1-0.1-0.1c-0.4-0.4-0.7-1.1-0.8-1.6c-0.1-0.6,0.3-1.4,0.4-2
		C9.1,10.1,10.1,8.9,11.2,8z M18.6,2.9C18.6,2.9,18.6,2.9,18.6,2.9c0.3,0.1,0.8-0.1,1.1-0.2c0.3,0,0.6-0.1,0.8,0
		c0.1,0.3,0.1,0.6,0.3,1c-0.8-0.1-1.6-0.1-2.4-0.1c0-0.1,0.1-0.2,0.1-0.2C18.5,3.3,18.6,3,18.6,2.9z M10.5,3c1-0.7,2.3-1.1,3.4-1.2
		c1-0.1,1.9,0.3,2.8,0.8c-0.1,0.3-0.2,0.6-0.3,0.8c-0.3,0.6-0.6,1.2-1.1,1.7c-1,1.1-2.7,1.1-4.1,1c-0.5-0.1-0.7-0.2-1.1-0.6
		c-0.3-0.3-0.6-0.7-0.8-1C9.6,3.9,9.9,3.4,10.5,3z M8.9,7C9,7.1,9.2,7.2,9.3,7.3C9.2,7.4,9,7.6,8.9,7.7C8.9,7.5,8.9,7.2,8.9,7z
		 M9.3,44c-0.3,0.1-0.7,0.3-1.1,0.4c0.2-0.5,0.4-1.1,0.5-1.7c0.4-2.2,0.4-4.3,0.1-6.5c-0.4-2.4-1.1-4.8-1.3-7.3
		c-0.1-2.4,0.7-4.5,1.3-6.8c0.1-0.3,0.1-0.6,0.2-0.9c-0.1,2-0.2,4-0.1,5.9c0.1,1.7,0.3,3.4,0.9,5c0.7,1.7,1.4,3.4,2.6,4.9
		c0.9,1.1,2,2,3.2,2.8c0.1,0.1,0.3,0.2,0.4,0.3c-0.3,0.1-0.5,0.4-0.5,0.8c0,0.1,0,0.2-0.1,0.4c-0.1,0.1-0.3,0.3-0.4,0.4
		c-0.5,0.4-1,0.6-1.6,0.8C12,43.2,10.6,43.5,9.3,44z M21.9,48.4c-2.1-0.1-4.2-0.8-6.1-1.6c-1.1-0.5-2.1-1.2-3-2.1
		c0.6-0.2,1.2-0.4,1.8-0.7c1.3-0.6,2.5-1.5,2.6-3c0.9,0.6,1.9,1.2,2.9,1.4c1.8,0.4,3.5-0.2,5.1-0.9c1.4-0.6,2.7-1.4,3.8-2.5
		c0.1,2.3,0.4,4.6,0.9,6.8C27.5,47.5,24.9,48.6,21.9,48.4z M42.6,58c-3-0.5-5.7-2.3-7.6-4.7c-2.2-2.7-3-6.3-3.6-9.6
		c-0.3-1.9-0.5-3.8-0.5-5.7c0-0.3-0.1-0.5-0.3-0.7c0.5-0.7,1-1.4,1.4-2.1c0,3,0.3,5.9,1,8.9c0.8,3.1,2,6.2,3.8,8.8
		c0.6,1,2.2,0.1,1.6-0.9c-3-4.5-4.2-9.7-4.5-15c-0.1-2-0.1-4.1,0-6.1c0.1-1.3,0.2-2.6,0.1-3.9c-0.1-1.4-0.5-2.7-0.6-4.1
		c-0.2-1.6-0.3-3.2-0.2-4.8c0.2-0.3,0.3-0.6,0.1-1c-1.6-2.9-3-5.9-4.1-9c0,0,0,0,0,0c0-0.2,0-0.5-0.1-0.7c0.1,0,0.1-0.1,0.2-0.1
		c0.2-0.1,0.5-0.2,0.7-0.3c0.1,0.1,0.3,0.2,0.5,0.3c1.1,0.2,2.2,0.9,3.1,1.7c0,0,0,0.1,0.1,0.1c0.1,0.2,0.3,0.3,0.4,0.4
		c0.1,0.1,0.2,0.2,0.3,0.3c0.8,0.9,1.4,2.3,2,3.5c0.5,1.1,1,2.1,1.3,3.3c0.2,1,0.2,2,0.3,3c0.1,0.9,0.2,1.8,0.2,2.7
		c0,0.9-0.1,1.7-0.2,2.6c-0.4,2.4-1.2,4.8-1.7,7.2c-0.4,1.9-0.6,3.8-0.4,5.8c0.2,2.9,1.3,5.5,2.2,8.2C38.9,50.2,40.2,54.4,42.6,58z"
		/>
	<path class="st0" d="M21.1,31.2c1.1-0.4,0.6-2.1-0.4-1.8c0,0,0,0,0,0c0.1-0.2,0.1-0.4,0.2-0.6c0.2-0.5,0.4-0.9,0.5-1.4
		c0.1-0.5-0.1-1-0.6-1.1c-0.4-0.1-1.1,0.2-1.1,0.6c-0.1,1-0.9,1.9-0.7,3C19.2,30.8,20.2,31.5,21.1,31.2z M20.7,29.4
		C20.8,29.4,20.6,29.6,20.7,29.4L20.7,29.4z"/>
	<path class="st0" d="M24.6,32.1c-0.5,0.6-1,1.2-1.7,1.5c-0.8,0.4-1.7,0.2-2.5,0c-1.2-0.2-1.7,1.6-0.5,1.8c1.2,0.2,2.4,0.4,3.5,0
		c1-0.4,1.8-1.2,2.5-2C26.7,32.5,25.4,31.2,24.6,32.1z"/>
	<path class="st0" d="M24.9,21.5c-0.7,0-1.5,0.4-1.8,1.1c-0.2,0.5-0.1,1,0.3,1.3c0.4,0.2,1.1,0.1,1.3-0.3c0,0,0.1-0.2,0.1-0.2
		c0,0,0,0,0.1,0c0,0,0,0,0.1,0c0,0,0.1,0.1,0,0c0.2,0.5,0.6,0.8,1.1,0.6c0.4-0.1,0.8-0.7,0.6-1.1C26.3,22.1,25.7,21.5,24.9,21.5z"/>
	<path class="st0" d="M13.8,22.5c-0.4,0.3-0.3,1,0,1.3c0.4,0.4,0.9,0.3,1.3,0c-0.1,0,0,0,0,0c0,0,0,0,0.1,0c0,0,0.2,0,0.2,0
		c0.2,0,0.2,0.1,0.3,0.3c0.6,1,2.2,0.1,1.6-0.9C16.6,21.8,14.9,21.7,13.8,22.5z M15.2,23.8C15.2,23.8,15.2,23.8,15.2,23.8
		C15.2,23.8,15.2,23.8,15.2,23.8z"/>
</g>
</svg>
