<?xml version="1.0" encoding="utf-8"?>
<!-- Generator: Adobe Illustrator 21.0.0, SVG Export Plug-In . SVG Version: 6.00 Build 0)  -->
<svg version="1.1" id="Layer_2" xmlns="http://www.w3.org/2000/svg" xmlns:xlink="http://www.w3.org/1999/xlink" x="0px" y="0px"
	 width="373.8px" height="103px" viewBox="0 0 373.8 103" style="enable-background:new 0 0 373.8 103;" xml:space="preserve">
<style type="text/css">
	.st0{fill:#F53145;}
	.st1{fill:#232323;}
</style>
<g>
	<path class="st0" d="M0,38.8h17v5.9H6.2v8.9H14v5.9H6.2v7.2h10.3v5.9H0V38.8z M14.4,70.1v-1H3.6V57.1h7.9v-1H3.6V42.3h10.8v-1H2.6
		v28.7H14.4z"/>
	<path class="st0" d="M26.9,55.6V38.8h6.2v16.8c0,8.5,5.2,11,5.6,11s5.6-2.5,5.6-11V38.8h6.2v16.8c0,10.3-6.8,15.8-9.6,17.5h-4.5
		C33.7,71.4,26.9,66,26.9,55.6z M39.8,70.8c4.8-2.7,8.3-8,8.3-15.2V41.4h-1v14.3c0,8.4-5.4,13.6-7.7,14.2h-1
		c-2.3-0.7-7.7-5.5-7.7-14.2V41.4h-1v14.3c0,7.2,3.4,12.5,8.3,15.2H39.8z"/>
	<path class="st0" d="M60.8,38.8h17v5.9H67v8.9h7.9v5.9H67v7.2h10.3v5.9H60.8V38.8z M75.2,70.1v-1H64.4V57.1h7.9v-1h-7.9V42.3h10.8
		v-1H63.4v28.7H75.2z"/>
	<path class="st0" d="M87.8,38.8h10.6c7.6,0,11.5,4.5,11.5,11.2c0,4.4-1.9,8.1-5.4,10.1l4.8,12.6h-6.5l-4.2-11.1H94v11.1h-6.2V38.8z
		 M91.4,70.1v-11h7c0.7,0,1.3-0.1,1.9-0.2l4.2,11.2h1l-4.3-11.4c4-1.1,6-4.5,6-9c0-6.2-4.6-8.3-8.9-8.3h-8v28.7H91.4z M91.4,42.4h7
		c4,0,7.9,2,7.9,7.3c0,4.5-2.3,8.4-7.9,8.4h-7V42.4z M98.4,55.6c3.2,0,5.3-2.3,5.3-5.6c0-3.2-2.2-5.3-5.3-5.3H94v10.9H98.4z"/>
	<path class="st0" d="M117.8,38.8h6.2v5.3c0,7.4,4.1,10.5,4.6,10.5c0.5,0,4.6-3.1,4.6-10.5v-5.3h6.2v5.3c0,8.3-4.6,13.6-7.6,15.8
		l0.2,12.7h-6.2l-0.2-12.6c-3-2.2-7.7-7.4-7.7-15.9V38.8z M128.1,58.5l0.1,11.5h1l-0.1-11.5c4.7-2.9,7.6-9,7.6-14.5v-2.7h-1v2.7
		c0,8.3-5.7,13.1-7.2,13.6c-1.5-0.5-7.2-5.4-7.2-13.6v-2.7h-1v2.7C120.4,49,123.3,55.7,128.1,58.5z"/>
	<path class="st0" d="M148.4,38.8h6.2v16.8c0,8.5,4,11,4.5,11s4.6-2.5,4.6-11V38.8h6.2v16.8c0,8.5,4,11,4.5,11s4.6-2.5,4.6-11V38.8
		h6.2v16.8c0,10.3-5.8,15.8-8.6,17.5h-4.5c-1.3-0.8-3.8-2.9-5.4-5.8c-1.6,2.9-4.1,5-5.4,5.8h-4.5c-2.8-1.7-8.4-7.2-8.4-17.5V38.8z
		 M158.2,70.8h1.9c2.9-1.5,5.7-5.6,6.7-10c0.9,4.3,3.4,8.2,6.7,10h1.9c4.3-2.2,7.2-8.5,7.2-15.2V41.4h-1v14.3c0,8.4-3.8,13-6.7,14.2
		h-1c-2.9-1.2-6.7-5-6.7-14.2V41.4h-1v14.3c0,8.4-3.8,13-6.7,14.2h-1c-2.9-1.2-6.7-5-6.7-14.2V41.4h-1v14.3
		C151,62.8,153.4,68.2,158.2,70.8z"/>
	<path class="st0" d="M194.1,38.8h6.2v16.9h10.2V38.8h6.2v33.8h-6.2v-11h-10.2v11h-6.2V38.8z M197.7,70.1v-11h15.4V70h1V41.4h-1
		v16.8h-15.4V41.5h-1v28.6H197.7z"/>
	<path class="st0" d="M225.3,38.8h17v5.9h-10.8v8.9h7.9v5.9h-7.9v7.2h10.3v5.9h-16.5V38.8z M239.7,70.1v-1h-10.8V57.1h7.9v-1h-7.9
		V42.3h10.8v-1h-11.8v28.7H239.7z"/>
	<path class="st0" d="M251.4,38.8H262c7.6,0,11.5,4.5,11.5,11.2c0,4.4-1.9,8.1-5.4,10.1l4.8,12.6h-6.5l-4.3-11.1h-4.6v11.1h-6.2
		V38.8z M255.1,70.1v-11h7c0.7,0,1.3-0.1,1.9-0.2l4.3,11.2h1L265,58.7c4-1.1,6-4.5,6-9c0-6.2-4.6-8.3-8.9-8.3h-8v28.7H255.1z
		 M255.1,42.4h7c4,0,7.9,2,7.9,7.3c0,4.5-2.3,8.4-7.9,8.4h-7V42.4z M262,55.6c3.2,0,5.3-2.3,5.3-5.6c0-3.2-2.2-5.3-5.3-5.3h-4.4
		v10.9H262z"/>
	<path class="st0" d="M282.2,38.8h17v5.9h-10.8v8.9h7.9v5.9h-7.9v7.2h10.3v5.9h-16.5V38.8z M296.6,70.1v-1h-10.8V57.1h7.9v-1h-7.9
		V42.3h10.8v-1h-11.8v28.7H296.6z"/>
	<path class="st0" d="M315.6,38.8v33.8h-6.2V38.8H315.6z M312,41.4v28.7h1V41.4H312z"/>
	<path class="st0" d="M330.1,61.5c0,4,1.1,5.7,5.3,5.7c3.2,0,4.9-1.5,4.9-4.2c0-5.3-16.1-3.6-16.1-14.7c0-5.9,3.8-10.1,10.8-10.1
		c6.9,0,10.4,3.6,10.4,8.7c0,1-0.1,2.2-0.3,3.3h-5.9c0.3-0.9,0.3-1.7,0.3-2.4c0-2.1-1.2-3.6-4.4-3.6c-3.7,0-4.6,1.8-4.6,3.9
		c0,6.6,15.9,3.8,15.9,14.8c0,3.7-2.1,10.3-10.9,10.3c-8.3,0-11.2-5.1-11.2-11.6H330.1z M342.8,63c0,4-2.9,6.7-7.4,6.7
		s-7.3-1.7-7.6-5.6h-1c0.3,4.4,3.7,6.6,8.7,6.6s8.4-3,8.4-7.8c0-9.3-16.1-5.3-16.1-15c0-4,2.8-6.1,7.4-6.1c5.3,0,7.1,2.9,6.7,6h1
		c0.4-3.9-1.9-7-7.7-7c-5.2,0-8.3,2.7-8.3,7.1C326.8,58.5,342.8,54.1,342.8,63z"/>
	<path class="st0" d="M353.3,38.8h20.4v5.9h-7.1v27.9h-6.2V44.7h-7.2V38.8z M363.1,42.3v27.8h1V42.3h7.2v-1h-15.5v1H363.1z"/>
</g>
<g>
	<path class="st1" d="M268.6,14.3c2.2,0,4.1-1,5.5-2.2c0.5-0.5,0.7-0.5,1.2,0c0.5,0.5,0.5,0.7,0,1.2c-0.5,0.5-1,0.7-1.4,1h4.8
		c2.4,0,6.2-1,7.4-2.2c0.5-0.5,0.5-0.5,1,0c0.7,1,2.2,1.7,2.9,2.2c0.5,0,0.7,0.2,0.7,1c0,0.5-0.2,0.7-0.7,1c-1,0.5-2.2,1.2-2.9,2.4
		c-0.5,0.2-0.5,0.2-1,0c-0.7-1.4-3.8-2.4-6.9-2.6h-5c0.5,0.5,0.7,0.7,1.2,1c0.5,0.5,0.5,0.7,0,1.2c-0.5,0.5-0.7,0.5-1.2,0
		c-1.4-1.2-3.3-2.2-5.5-2.2h-45c-0.5,0-0.7-0.2-0.7-0.7c0-0.5,0.2-1,0.7-1H268.6z M288.3,15.2l-1.7-1.2c-0.7,0.5-1.9,0.7-2.9,1.2
		c1.2,0.2,2.2,0.7,2.9,1.2C287.1,16,287.8,15.5,288.3,15.2z"/>
</g>
<g>
	<path class="st1" d="M146.2,14.3c0.5,0,0.7,0.5,0.7,1c0,0.5-0.2,0.7-0.7,0.7h-45c-2.2,0-4.1,1-5.5,2.2c-0.5,0.5-0.7,0.5-1.2,0
		c-0.5-0.5-0.5-0.7,0-1.2c0.5-0.2,0.7-0.5,1.2-1h-5c-3.1,0.2-6.2,1.2-6.9,2.6c-0.5,0.2-0.5,0.2-1,0c-0.7-1.2-1.9-1.9-2.9-2.4
		c-0.5-0.2-0.7-0.5-0.7-1c0-0.7,0.2-1,0.7-1c0.7-0.5,2.2-1.2,2.9-2.2c0.5-0.5,0.5-0.5,1,0c1.2,1.2,5,2.2,7.4,2.2h4.8
		c-0.5-0.2-1-0.5-1.4-1c-0.5-0.5-0.5-0.7,0-1.2c0.5-0.5,0.7-0.5,1.2,0c1.4,1.2,3.3,2.2,5.5,2.2H146.2z M83.2,16.4
		c0.7-0.5,1.7-1,2.9-1.2c-1-0.5-2.2-0.7-2.9-1.2l-1.7,1.2C82.1,15.5,82.8,16,83.2,16.4z"/>
</g>
<g>
	<path class="st1" d="M174.5,4c-0.5-0.1-1.3-0.1-2.4-0.1c-3.8,0-7.8,2.2-7.8,6.6c0,4,2.1,6,6.1,6.2v2c-5-0.2-8.1-3.1-8.1-8.2
		c0-4.9,4.2-8.7,9.8-8.7c6.1,0,8.8,2.1,13.4,2.1c3.8,0,7-1.5,8.5-3.9l1.8,1.1C194,4.1,190,6,185.5,6c-3.3,0-5.3-0.9-8.9-1.6V27
		l-2.2,0.5V4z M183.1,10.1l2.2-0.5v8.1l5.5-1.3V8.2l2.1-0.5V23l-2.1,0.5v-5.2l-5.5,1.3V25l-2.2,0.5V10.1z M197.9,6.4l7.2-1.6v2.1
		l-5,1.2v5l3.7-0.9v2.1l-3.7,0.9v4.1l4.7-1.1v2.1l-6.9,1.6V6.4z"/>
</g>
<g>
	<path class="st1" d="M35.9,101.5c-0.1-0.5-0.2-0.8-0.3-0.9l0,0l-0.4-0.8c0-0.1-0.1-0.3-0.1-0.4h0L34.7,98l-0.9-3.5
		c-0.2-1-0.4-2.1-0.8-3.2c-0.1-0.7-0.4-1.1-0.8-1.1l-0.1,0c-0.2,0-0.4,0-1.3,2.6c-0.3,0.8-0.3,0.9-0.3,0.9l-0.1,0.1l0,0.2
		c-0.4,1-0.5,1.3-0.5,1.4c-0.2,0.5-0.3,0.7-0.4,0.9h0l-0.1,0.2c-0.2,0.8-0.4,1.1-0.4,1.2c-0.4,1.3-0.7,2.2-1,2.9l0,0.1l0,0.1
		l-0.2,0.4l0,0.1c-0.1,0.2-0.2,0.5-0.3,0.9v0.2l0.2,0.3h0.1c0,0,0.1,0,0.1,0c0,0,0.1,0,0.1,0h0.1l0.1,0c0.3-0.2,0.4-0.3,0.5-0.4
		l0-0.1V102c0,0,0-0.1,0-0.1c0,0,0,0,0,0l0.1-0.1l0-0.1c0.1-0.1,0.1-0.3,0.3-0.7l0.8-2.4c0.2-0.4,0.3-0.7,0.3-0.9c0,0,0.1,0,0.1,0
		l0.6,0c0,0,0.1,0,0.1,0l0.1,0l0.1,0l0.3,0l0.3,0l0.1,0l0.3,0l0.1,0l0.1-0.1l0.3,0l0.5,0.1v-0.1c0.2,0.6,0.4,1.3,0.6,1.9
		c0.4,1.3,0.6,1.8,0.7,2l0,0.3h0c0.1,0.2,0.2,0.4,0.4,0.5l0.1,0h0.1c0,0,0.1,0,0.2,0c0,0,0,0,0,0c0.3,0,0.5-0.1,0.7-0.3l0-0.1v-0.4
		l0-0.2C36,101.6,36,101.6,35.9,101.5z M31.6,94c0.1-0.3,0.3-0.7,0.4-1c0.1,0.2,0.1,0.5,0.2,0.7l0,0.4h0c0.1,0.5,0.2,1,0.4,1.5h0
		l0.1,0.3c0,0.2,0.1,0.4,0.1,0.5c0,0-0.1,0-0.1,0l-0.3,0v0l0-0.1l-0.3,0.1l-1,0c-0.1,0-0.1,0-0.2,0l-0.2,0l-0.1,0c0,0,0,0,0,0
		c0.3-0.9,0.6-1.7,0.9-2.4L31.6,94L31.6,94z"/>
	<path class="st1" d="M47.6,101.6L47.6,101.6c0-0.2,0-0.2,0-0.3v0c0,0,0-0.2,0-0.6v-0.1c0,0,0,0,0,0h0l0-0.2l0.1-0.3h-0.1l0-0.5
		l0-0.1l-0.1-1l0-0.2h0l-0.1-0.9l0,0l0-0.3c0-0.5-0.1-0.9-0.1-1.2h0l-0.1-0.6v-0.7c0-0.1,0-0.1,0-0.1c0-0.1,0-0.3,0-0.7l-0.1-0.9
		l0.1-0.4l0,0l0,0l0-0.1h-0.1l0-0.1l-0.1-0.1l0-0.2l0-0.3h0l0-0.1l0-0.2l-0.1-0.4l0.1-0.5h-0.1v0c0-0.4-0.3-0.6-0.8-0.7
		c-0.4,0-0.6,0.5-0.7,0.7l0,0.1c0,0.1,0,0.2,0,0.3l0,0c0,0,0,0.1,0,0.2c0,0,0,0.1,0,0.1l0,0.1l0,0.1l0,0.4c0,0.1,0,0.1,0,0.2l0,0.1
		c0,0.6,0,1.5,0.1,2.7c-0.4-0.5-0.8-1-1.1-1.5c-0.5-0.7-1-1.3-1.4-1.8c-0.4-0.5-0.6-0.7-0.8-0.8c-0.1-0.3-0.5-0.4-0.9-0.5l-0.4,0
		l-0.1,0c-0.2,0.2-0.4,0.4-0.4,0.5l0,0.7c0,0.2,0,0.4,0,0.5l0,0v0.2l-0.1,0.3h0.1c0,0.3,0,0.6-0.1,0.7l0,0.1l0,0.1l0,0.1l0,0.1
		c0,0,0,0.1,0,0.1v0.6c0,0.5,0,1.1-0.1,1.7c0,0,0,0,0,0.1l0,0.1l0,0.1c0,0,0,0,0,0l0,0.2c0,0,0,0.1,0,0.2l0,0.1
		c0,0.2-0.1,0.8-0.1,1.3l-0.1,0.2l0.1,0.1l-0.1,0.5h0.1c0,0,0,0,0,0l-0.1,0.1v0.1c0,0,0,0.1,0,0.1c0,0,0,0.1,0,0.1l0,0.7
		c-0.1,0.5-0.2,1.1-0.3,1.9l0,0.1l0,0.1c0.1,0.1,0.2,0.3,0.4,0.4l0.3,0c0.2,0,0.5-0.1,0.7-0.5l0-0.1v-0.1c0,0,0,0,0-0.1l0-0.1l0-0.1
		v-0.1c0-0.1,0-0.1,0-0.2c0-0.2,0.1-0.7,0.2-0.9h0.1l0-0.4l0-0.2l0-0.4l0.1-0.3l-0.1,0l0.1-0.6l0-0.1l0-0.4c0.1-0.3,0.1-0.7,0.1-1.3
		v-0.4c0,0,0-0.1,0-0.1c0,0,0-0.1,0-0.1c0-0.4,0-0.8,0.1-1.3l0-0.1l0-0.1l0-1l0-0.6h0c0-0.2,0.1-0.5,0.1-0.8
		c0.1,0.1,0.2,0.2,0.3,0.4l2,2.5c0.3,0.4,0.6,0.8,0.9,1.1c0.1,0.1,0.2,0.3,0.4,0.6l0.3,0.5h0c0,0.1,0.1,0.4,0.1,1l0,0.2L46,99v0.2
		c0,0.2,0,0.4,0.1,0.5l0,0l0,0.1c0,0,0,0.1,0,0.1h0l0.1,0.4l0,0.1l-0.1,0.1l0,0.2c0,0,0,0,0,0l0,0.1h0c0,0.2,0.1,0.5,0.1,1v0.1
		c0,0.1,0,0.2,0,0.4l0,0.1l0,0.1c0,0.1,0.1,0.2,0.3,0.3l0.8,0c0.3,0,0.4-0.4,0.4-0.6l0,0v-0.1l0.1-0.1l-0.1-0.1
		C47.6,101.7,47.6,101.6,47.6,101.6z"/>
	<path class="st1" d="M67.6,101.5c-0.1-0.5-0.2-0.8-0.3-0.9l0,0L67,99.8c0-0.1-0.1-0.3-0.1-0.4h0L66.4,98l-0.9-3.5
		c-0.2-1-0.4-2.1-0.8-3.2c-0.1-0.7-0.4-1.1-0.8-1.1l-0.1,0c-0.2,0-0.4,0-1.3,2.6c-0.3,0.8-0.3,0.9-0.3,0.9l-0.1,0.1l0,0.2
		c-0.4,1-0.5,1.3-0.5,1.4c-0.2,0.5-0.3,0.7-0.4,0.9h0l-0.1,0.2c-0.2,0.8-0.4,1.1-0.4,1.2c-0.4,1.3-0.7,2.2-1,2.9l0,0.1l0,0.1
		l-0.2,0.4l0,0.1c-0.1,0.2-0.2,0.5-0.3,0.9v0.2l0.2,0.3h0.1c0,0,0.1,0,0.1,0c0,0,0.1,0,0.1,0h0.1l0.1,0c0.3-0.2,0.4-0.3,0.5-0.4
		l0-0.1V102c0,0,0-0.1,0-0.1c0,0,0,0,0,0l0.1-0.1l0-0.1c0.1-0.1,0.1-0.3,0.3-0.7l0.8-2.4c0.2-0.4,0.3-0.7,0.3-0.9c0,0,0.1,0,0.1,0
		l0.6,0c0,0,0.1,0,0.1,0l0.1,0l0.1,0l0.3,0l0.3,0l0.1,0l0.3,0l0.1,0l0.1-0.1l0.3,0l0.5,0.1v-0.1c0.2,0.6,0.4,1.3,0.6,1.9
		c0.4,1.3,0.6,1.8,0.7,2l0,0.3h0c0.1,0.2,0.2,0.4,0.4,0.5l0.1,0h0.1c0,0,0.1,0,0.2,0c0,0,0,0,0,0c0.3,0,0.5-0.1,0.7-0.3l0-0.1v-0.4
		l0-0.2C67.7,101.6,67.7,101.6,67.6,101.5z M63.4,94c0.1-0.3,0.3-0.7,0.4-1c0.1,0.2,0.1,0.5,0.2,0.7l0,0.4h0c0.1,0.5,0.2,1,0.4,1.5
		h0l0.1,0.3c0,0.2,0.1,0.4,0.1,0.5c0,0-0.1,0-0.1,0l-0.3,0v0l0-0.1l-0.3,0.1l-1,0c-0.1,0-0.1,0-0.2,0l-0.2,0l-0.1,0c0,0,0,0,0,0
		c0.3-0.9,0.6-1.7,0.9-2.4L63.4,94L63.4,94z"/>
	<path class="st1" d="M82,90.8l0.1-0.1h-0.2v-0.2h-0.2l0,0h-0.1l0,0h-0.2c-0.1,0-0.2,0-0.4,0.1h-0.1l-0.2,0.1v0.1c0,0,0,0.1,0,0.1
		c-0.1,0.1-0.1,0.3-0.1,0.5h-0.1l0.1,0.3l0,0.1l0,0.1l0,0.3c0,0.1-0.1,0.3-0.1,0.5l0,0.3h0c0,0,0,0,0,0h-0.3l0.2,0.3
		c0,0,0,0.1,0,0.1l0,0.3c0,0.1,0,0.1,0,0.1L80.2,94h0.1c0,0,0,0,0,0l-0.1,0v0.2c0,0,0,0.1,0,0.1c0,0.1,0,0.1,0,0.3l0,0
		c0,0.1-0.1,0.2-0.1,0.3l0,0.1l0,0.1l0,0.1c0,0,0,0,0,0.1c0,0.1-0.1,0.2-0.1,0.3l0,0.1l0,0c0,0.1-0.1,0.3-0.1,0.6l0,0
		c-0.1,0.7-0.2,0.9-0.2,0.9l0,0.1c0,0,0,0.1,0,0.1c0,0,0,0.1,0,0.1l0,0.1l0,0.1c0,0,0,0.1-0.1,0.1l0,0v0.3c0,0.1,0,0.1,0,0.2l0,0.2
		c0,0.1-0.1,0.2-0.1,0.3c-0.1-0.2-0.2-0.4-0.3-0.6v0c0,0,0-0.1-0.1-0.4l-0.7-1.6c-0.2-0.4-0.3-0.7-0.3-0.8l0-0.1
		c0-0.1,0-0.2-0.1-0.4c-0.2-0.7-0.3-0.9-0.6-0.9h-0.2V94h-0.4v0.1l-0.1,0.1c0,0,0,0.1,0,0.1h-0.1l0,0.2c0,0.4-0.1,0.7-0.2,0.9l0,0.1
		c0,0.3-0.1,0.7-0.3,1.1h-0.2l0.1,0.3l0,0.1h0l0,0.1l-0.1,0.1l0.1,0.2c0,0.1-0.1,0.1-0.1,0.2l0,0c0,0,0,0.1,0,0.1l0,0.1l0,0
		c0,0.3-0.1,0.5-0.2,0.6c-0.1,0.2-0.2,0.4-0.2,0.7c0,0,0-0.1,0-0.1V99c0,0,0-0.1,0-0.1l0-0.1l0-0.1c-0.1-0.1-0.1-0.3-0.1-0.4h0
		L75.1,98c-0.2-0.9-0.3-1.7-0.5-2.3l0-0.4h0c-0.1-0.4-0.2-0.7-0.2-0.9c0-0.3-0.1-0.6-0.2-1l0,0l0-0.1c-0.1-0.5-0.2-0.8-0.2-1l0,0
		L73.9,92c-0.1-0.2-0.1-0.4-0.1-0.5v-0.2c0-0.1,0-0.1,0-0.2l0,0l0-0.1c0-0.2-0.1-0.4-0.2-0.6v-0.1c0-0.1-0.1-0.3-0.4-0.3
		c0,0-0.1,0-0.1,0l-0.2,0l-0.1,0.1c-0.1,0.1-0.2,0.2-0.2,0.3c-0.1,0-0.2,0.1-0.3,0.3l0,0l0,0c0.1,0.4,0.1,0.6,0.2,0.8l0,0.2
		c0,0,0,0,0,0h0l0.2,0.9c0.1,0.8,0.2,1.4,0.4,1.7l0,0.1c0,0.2,0.1,0.4,0.2,0.8h0l0.1,0.3c0.1,0.3,0.1,0.5,0.2,0.7
		c0,0.3,0.1,0.5,0.1,0.6l0,0.1c0,0.2,0.1,0.3,0.1,0.4l0,0.1c0,0.1,0.1,0.6,0.2,0.9l0,0l0.3,1.8l0,0.1c0,0.1,0,0.1,0,0.2
		c0,0,0,0,0,0.1l0,0.1l0.1,0.1c0,0.1,0.1,0.3,0.1,0.5h0l0.1,0.4c0,0.2,0.1,0.3,0.1,0.5l0,0.2l0.1,0.1c0,0,0,0,0,0v0.2l0.3-0.1l0.1,0
		l0.2,0c0.2-0.1,0.4-0.2,0.5-0.4c0.2-0.6,0.4-1,0.5-1.2c0.1-0.4,0.2-0.6,0.2-0.5l0.1-0.1l0-0.2c0-0.1,0-0.1,0-0.1l0.1-0.2
		c0.1-0.5,0.2-0.7,0.2-0.8h0.1l0-0.2c0.1-0.5,0.2-1,0.3-1.4l0-0.1l0-0.1c0.1-0.3,0.1-0.4,0.1-0.5c0.3,0.7,0.5,1.3,0.7,1.8
		c0.3,0.5,0.5,1.3,0.8,2.4h0l0.1,0.3c0.1,0.3,0.2,0.6,0.2,0.7c0.1,0.2,0.2,0.4,0.6,0.5c0.1,0,0.2,0,0.3-0.1c0.3-0.1,0.4-0.3,0.4-0.4
		c0.1-0.1,0.2-0.3,0.2-0.4l0-0.1l0-0.1c0-0.1,0-0.1,0-0.2l0-0.2c0.1-0.2,0.1-0.4,0.1-0.7l0-0.3h0c0-0.1,0-0.1,0-0.2l0.1-0.7
		c0-0.1,0-0.1,0-0.2l0.3-1.6h0c0,0,0-0.1,0-0.1l0-0.3h0c0,0,0-0.1,0-0.1l0-0.3h0l0-0.1c0.1-0.4,0.2-0.9,0.3-1.7l0-0.3h0
		c0.1-0.5,0.1-0.8,0.2-1.1l0-0.1c0-0.2,0-0.3,0-0.4h0.3l-0.2-0.3c0-0.1,0.1-0.4,0.1-0.8v-0.1l0,0l0.1-0.5l0,0l0-0.1l0-0.1l0.2-0.1
		L82,90.8z"/>
	<path class="st1" d="M94.8,101.5c-0.1-0.5-0.2-0.8-0.3-0.9l0,0l-0.4-0.8c0-0.1-0.1-0.3-0.1-0.4h0L93.5,98l-0.9-3.5
		c-0.2-1-0.4-2.1-0.8-3.2c-0.1-0.7-0.4-1.1-0.8-1.1l-0.1,0c-0.2,0-0.4,0-1.3,2.6c-0.2,0.7-0.3,0.9-0.3,0.9h0l-0.1,0.1l0,0.2
		c-0.4,1-0.5,1.3-0.5,1.4c-0.2,0.5-0.3,0.7-0.4,0.9h0l-0.1,0.2c-0.2,0.8-0.4,1.1-0.4,1.2c-0.4,1.3-0.7,2.2-1,2.9l0,0.1l0,0.1
		l-0.2,0.4l0,0.1c-0.1,0.2-0.2,0.5-0.3,0.9v0.2l0.2,0.3h0.1c0,0,0.1,0,0.1,0c0,0,0.1,0,0.1,0H87l0.1,0c0.3-0.2,0.4-0.3,0.5-0.4
		l0-0.1V102c0,0,0-0.1,0-0.1c0,0,0,0,0,0l0.1-0.1l0-0.1c0.1-0.1,0.1-0.3,0.3-0.7l0.8-2.4c0.1-0.3,0.3-0.6,0.3-0.9c0,0,0.1,0,0.1,0
		l0.6,0c0,0,0.1,0,0.1,0l0.1,0l0.1,0l0.3,0l0.3,0l0.1,0l0.3,0l0.1,0l0.1-0.1l0.3,0l0.5,0.1v-0.1c0.2,0.6,0.4,1.3,0.6,1.9
		c0.4,1.3,0.6,1.8,0.7,2l0,0.3h0c0.1,0.2,0.2,0.4,0.4,0.5l0.1,0h0.1c0,0,0.1,0,0.2,0h0c0.3,0,0.5-0.1,0.7-0.3l0-0.1v-0.4l0-0.2
		C94.9,101.6,94.9,101.6,94.8,101.5z M90.5,94c0.1-0.3,0.3-0.7,0.4-1c0.1,0.2,0.1,0.5,0.2,0.7l0,0.4h0c0.1,0.5,0.2,1,0.4,1.5h0
		l0.1,0.3c0,0.2,0.1,0.4,0.1,0.5c0,0-0.1,0-0.1,0l-0.3,0v0l0-0.1l-0.3,0.1l-1,0c-0.1,0-0.1,0-0.2,0l-0.2,0l-0.1,0c0,0,0,0,0,0
		c0.3-0.9,0.6-1.7,0.9-2.4L90.5,94L90.5,94z"/>
	<path class="st1" d="M102.6,97.3l-0.7-0.7c0,0,0,0,0,0l0.1,0l0.1,0c0.9-0.2,1.7-0.6,2.2-1.2c0.5-0.5,0.9-1.3,1.1-2.4l0-0.1l0,0
		l0-0.1l-0.2-0.9c-0.3-0.8-0.7-1.3-1.3-1.5c-0.7-0.3-1.7-0.4-2.8-0.5l-0.3,0v0c-0.7,0-0.9,0.1-1,0.2c-0.5,0.1-0.5,0.8-0.5,1.1v0.2h0
		l-0.1,0.3h0.1c0,0.5,0,1.3,0,2.3h0l0.1,0.5V95c0,0.1,0,0.1,0,0.2l0,0.1l0,0.1c0,0.1,0,0.1,0,0.2l0,0.9l-0.1,0.5h0.1l0,0.1l0,0.1
		l0,0.1l0,0l0,0.2l0,0.1l0,0l0,0.1l0.1,0.2c0,0.1,0,0.1,0,0.1l0,0.7l-0.1,0.5h0l0,0.2h0l0,0.5h0l0,0.7h0l0,0.8l0,0.4h0v0.1
		c0,0,0,0.1,0,0.1c0,0.1,0,0.1,0,0.2c0,0.1,0.1,0.2,0.2,0.3c0.1,0.1,0.2,0.2,0.3,0.2c0.4,0,0.6-0.3,0.7-0.8l0,0l0-0.3
		c0,0,0-0.1,0-0.1v-0.2h-0.1c0-0.1,0-0.2,0-0.3l0-0.1l0-0.1l0-0.7l0-0.4h0l0-0.1c0-0.1,0-0.1,0-0.2l0-0.9h0.1l-0.1-0.3l0-0.7
		c0.2,0.2,0.5,0.5,0.9,0.8c0.5,0.5,1.2,1.5,2.1,2.8c1.1,1.5,1.2,1.6,1.3,1.6c0,0,0.1,0,0.1,0l0.3,0c0.2-0.1,0.4-0.3,0.5-0.5l0-0.2
		c0-0.1,0-0.3-1.3-1.9C104.3,99.5,103.7,98.6,102.6,97.3z M100.7,94.1c0,0,0-0.1,0-0.5l0-0.1l0-0.3l0.1,0l-0.1-0.3l0-0.9l0,0
		c0,0,0,0,0,0v-0.3c0-0.2,0-0.3,0-0.4l0.2,0l0.1,0l0.1,0l0,0c0.3,0,0.6,0,0.9,0.1l0.1,0c0.5,0,1,0.2,1.7,0.5
		c0.3,0.3,0.5,0.7,0.5,1.1c0,0.2-0.1,0.5-0.2,0.7l-0.2,0.4h0.1c-0.3,0.4-0.6,0.7-1.1,0.9c-0.5,0.3-1.2,0.4-1.9,0.4l0-1l0-0.1
		L100.7,94.1L100.7,94.1z"/>
	<path class="st1" d="M118.6,97c0-0.1,0-0.3,0-0.6V96c0-0.2,0-0.4-0.1-0.7l0-0.4h0c0-0.4-0.2-1-0.5-1.7c-0.4-0.8-1.1-1.5-2.4-2.3
		c-0.6-0.3-1.4-0.5-2.2-0.6l-0.4,0v0c-0.1,0-0.2,0-0.4,0l-0.1,0l-0.1,0l-0.2,0c0,0-0.1,0-0.1,0l0,0l-0.2,0c-0.1,0-0.1,0-0.2,0
		l-0.3,0l-0.5-0.1v0.1c-0.1,0-0.4,0.1-0.5,0.2c-0.2,0-0.4,0.2-0.4,0.6l0,0.1c0,0.1,0,0.2,0,0.2l-0.1,0.5h0.1c0,0.1,0,0.2,0,0.3
		l0,0.3c0,0.1,0,0.1,0,0.2l-0.1,1.2h0l0,0.1h-0.1l0,0.3l0,0.2l0,0l0.1,0.1c0,0.1,0,0.2,0,0.2l0,1.4l0,0.3c0,0,0,0.1,0,0.2l0,0.2
		l-0.1,0.4h0.1l0,0.2l0,0.3c0,0.1,0,0.1,0,0.1c0,0.1,0,0.1,0,0.2c0,0.1,0,0.1,0,0.2v0.2h-0.2l0.1,0.2l0,0.1h0.1v0.6c0,0,0,0.1,0,0.1
		l-0.2,0.3h0.3l0,0.1c0,0,0,0.2,0.1,0.4l-0.1,0v0.4l-0.1,0.2h0.1l-0.2,0.2h0.3l0.1,0.4l-0.1,0.1l0,0.1l0,0l0,0.1c0,0.4,0.1,1,0.5,1
		h0c0.1,0,0.2,0.1,0.3,0.1l0.3,0c0,0,0.1,0,0.1,0l0.5,0l0.5,0.1v0h0c0,0,0,0,0.1,0l0.2,0c0.1,0,0.3,0,0.5-0.1l0.4,0.1v-0.1
		c0.6,0,1.3-0.2,2.2-0.7c0.8-0.3,1.4-0.8,1.8-1.5c0.3-0.6,0.5-1.5,0.7-3.1l0,0l0-0.1L118.6,97L118.6,97z M111.5,100.3
		c0,0,0-0.1,0-0.1l0-0.1c0-0.1,0-0.3,0-1.1h0l-0.1-0.3c0-0.2-0.1-0.3-0.1-0.3h0.1l0-0.2l0.1-0.3h-0.1l0-0.2l0.1-0.3l0.1-0.2l-0.1,0
		l0-0.2l0.1-0.5h-0.1c0,0,0-0.1,0-0.1l0-0.4l0.1-0.1l-0.1-0.1c0-0.4,0-0.7,0.1-1l0-0.1l0,0c0,0,0-0.1,0-0.1l0-0.1l0.1-0.3l0-0.1l0,0
		v-0.2c0,0,0-0.1,0-0.1l0-0.9l0-0.4h0l0-0.1l0,0c0,0,0-0.1,0-0.1l0-0.1l0.1-0.2l-0.1-0.1l0-0.2h0.8c0.4,0,0.8,0,1.1,0.1l0.3,0.1v0
		c0.2,0.1,0.4,0.1,0.6,0.2l0.1,0c0.5,0,1.1,0.4,1.7,1c0.2,0.2,0.4,0.5,0.6,0.7c0.4,1,0.6,1.8,0.6,2.6l-0.1,0.3l0,0.1
		c0,0.4-0.1,0.7-0.1,0.8v0.1l0,0l-0.3,1.8l0,0c-0.1,0.2-0.1,0.4-0.2,0.8c-0.1,0.4-0.4,0.8-0.9,1.2c-0.9,0.4-1.4,0.6-1.7,0.6l-0.3,0
		c0,0-0.1,0-0.1,0l-0.1,0c0,0-0.2,0-0.6,0l-0.2,0c-0.7,0-1.2-0.1-1.4-0.1l0-0.1C111.5,101.3,111.5,100.9,111.5,100.3L111.5,100.3
		L111.5,100.3L111.5,100.3z"/>
	<path class="st1" d="M128.6,96.3c-0.1-0.2-0.2-0.4-0.4-0.4h-0.1c-0.1,0-0.1,0-0.2,0h-0.1c0,0-0.1,0-0.2,0l-0.2,0l-0.2,0l0,0l0,0
		l-0.2,0v0.1c-0.1,0-0.2,0-0.2,0l-1.4,0c0,0-0.1,0-0.1,0c0,0,0,0-0.1,0l-0.1,0c-0.5,0-0.9,0-1.4,0.1c0,0-0.1,0-0.1,0h-0.2v0
		c-0.1,0-0.1,0.1-0.1,0.1c-0.3,0.2-0.4,0.3-0.4,0.5c0,0.5,0.6,0.5,0.8,0.6l0.4,0l0.4,0c0.1,0,0.1,0,0.2,0l0.2,0c0.3,0,0.5,0,0.6,0
		l0.4,0c0,0,0.1,0,0.1,0l0.1,0l0.1,0l0.2,0l0.4,0.1v-0.1c0,0,0,0,0,0c0,0,0.1,0,0.1,0l0.9,0l0.5,0v-0.1c0.2-0.1,0.3-0.3,0.3-0.6
		L128.6,96.3L128.6,96.3z"/>
	<path class="st1" d="M141.9,90.8l0.1-0.1h-0.2v-0.2h-0.2l0,0h-0.1l0,0h-0.2c-0.1,0-0.2,0-0.4,0.1c0,0,0,0-0.1,0l-0.1,0l-0.2,0.1
		v0.1c0,0,0,0.1,0,0.1c-0.1,0.1-0.1,0.3-0.1,0.5h-0.1l0.1,0.3l0,0.1l0,0.1l0,0.3c0,0.1-0.1,0.3-0.1,0.5l0,0.3h0c0,0,0,0,0,0H140
		l0.2,0.3c0,0,0,0.1,0,0.1l0,0.3c0,0.1,0,0.1,0,0.1l-0.1,0.3h0.1c0,0,0,0,0,0l-0.1,0v0.2c0,0,0,0.1,0,0.1c0,0.1,0,0.1,0,0.3l0,0
		c0,0.1-0.1,0.2-0.1,0.3l0,0.1l0,0.1l0,0.1c0,0,0,0,0,0.1c0,0.1-0.1,0.2-0.1,0.3l0,0.1l0,0c0,0.1-0.1,0.3-0.1,0.6l0,0
		c-0.1,0.7-0.2,0.9-0.2,0.9l0,0.1c0,0,0,0.1,0,0.1c0,0,0,0.1,0,0.1l0,0.1l0,0.1c0,0,0,0.1-0.1,0.1l0,0v0.3c0,0.1,0,0.1,0,0.2l0,0.2
		c0,0.1-0.1,0.2-0.1,0.3c-0.1-0.2-0.2-0.4-0.3-0.6v0c0,0,0-0.1-0.1-0.4l-0.7-1.6c-0.2-0.4-0.3-0.7-0.3-0.8l0-0.1
		c0-0.1,0-0.2-0.1-0.4c-0.2-0.7-0.3-0.9-0.6-0.9h-0.2V94h-0.4v0.1l-0.1,0.1c0,0,0,0.1,0,0.1h-0.1l0,0.2c0,0.4-0.1,0.7-0.2,0.9l0,0.1
		c0,0.3-0.1,0.7-0.3,1.1h-0.2l0.1,0.3l0,0.1h0l0,0.1l-0.1,0.1l0.1,0.2c0,0.1-0.1,0.1-0.1,0.2l0,0c0,0,0,0.1,0,0.1l0,0.1l0,0
		c0,0.3-0.1,0.5-0.2,0.6c-0.1,0.2-0.2,0.4-0.2,0.7c0,0,0-0.1,0-0.1V99c0,0,0-0.1,0-0.1l0-0.1l0-0.1c-0.1-0.1-0.1-0.3-0.1-0.4h0
		l-0.1-0.3c-0.2-0.9-0.3-1.7-0.5-2.3l0-0.4h0c-0.1-0.4-0.2-0.7-0.2-0.9c-0.1-0.3-0.1-0.6-0.2-1l0,0l0-0.1c-0.1-0.5-0.2-0.8-0.2-1
		l0,0l-0.1-0.3c-0.1-0.2-0.1-0.4-0.1-0.5v-0.2c0-0.1,0-0.1,0-0.2l0,0l0-0.1c0-0.1-0.1-0.4-0.2-0.6v-0.1c0-0.1-0.1-0.3-0.4-0.3
		c0,0-0.1,0-0.1,0l-0.2,0l-0.1,0.1c-0.1,0.1-0.2,0.2-0.2,0.3c-0.1,0-0.2,0.2-0.3,0.3l0,0l0,0c0.1,0.4,0.1,0.6,0.2,0.8l0,0.2
		c0,0,0,0,0,0h0l0.2,0.7l0,0.2c0.1,0.8,0.2,1.4,0.4,1.7l0,0.1c0,0.2,0.1,0.4,0.2,0.8h0l0.1,0.3c0.1,0.3,0.1,0.6,0.2,0.7
		c0,0.3,0.1,0.5,0.1,0.6l0,0.1c0,0.2,0.1,0.3,0.1,0.4l0,0.1c0,0.1,0.1,0.6,0.2,0.9l0,0l0.3,1.8l0,0.1c0,0.1,0,0.1,0,0.2
		c0,0,0,0,0,0.1l0,0.1l0.1,0.1c0,0.1,0.1,0.3,0.1,0.5h0l0.1,0.4c0,0.2,0.1,0.3,0.1,0.5l0,0.2l0.1,0.1c0,0,0,0,0,0v0.2l0.3-0.1l0.1,0
		l0.2,0c0.2-0.1,0.4-0.2,0.5-0.4c0.2-0.6,0.4-1,0.5-1.2c0.1-0.4,0.2-0.6,0.2-0.5l0.1-0.1l0-0.2c0-0.1,0-0.1,0-0.1l0.1-0.2
		c0.1-0.5,0.2-0.7,0.2-0.8h0.1l0-0.2c0.1-0.5,0.2-1,0.3-1.4l0-0.1l0-0.1c0.1-0.3,0.1-0.4,0.1-0.5c0.3,0.7,0.5,1.3,0.7,1.8
		c0.3,0.5,0.5,1.3,0.8,2.4h0l0.1,0.3c0.1,0.3,0.2,0.6,0.2,0.7c0.1,0.2,0.2,0.4,0.6,0.5c0.1,0,0.2,0,0.3-0.1c0.3-0.1,0.4-0.3,0.4-0.4
		c0.1-0.1,0.2-0.3,0.2-0.4l0-0.1l0-0.1c0-0.1,0-0.2,0.1-0.3l0-0.2c0.1-0.2,0.1-0.4,0.1-0.7l0-0.3h0c0-0.1,0-0.1,0-0.2l0.1-0.7
		c0-0.1,0-0.1,0-0.2l0.3-1.6h0c0,0,0-0.1,0-0.1l0-0.3c0,0,0-0.1,0-0.1l0-0.3h0l0-0.1c0.1-0.4,0.2-0.9,0.3-1.7l0-0.3h0
		c0.1-0.5,0.1-0.8,0.2-1.1l0-0.1c0-0.2,0-0.3,0-0.4h0.3l-0.2-0.3c0-0.1,0.1-0.4,0.1-0.8v-0.1l0,0l0.1-0.5l0,0l0-0.1l0-0.1l0.2-0.1
		L141.9,90.8z"/>
	<path class="st1" d="M148.4,91.9l0-0.6l-0.1-0.1l0-0.2c-0.1-0.5-0.2-0.9-0.5-0.9h0l-0.3,0l-0.6,0.2l0,0.3l0,0l0,0.3
		c0,0.1,0,0.1,0,0.2c0,0,0,0.1,0,0.1l0,0.1c0,0,0,0.1,0,0.1H147l0.1,0.4l-0.1,0.1l0,0.1c0.1,0.2,0.1,0.3,0.1,0.5h0l0,0.5l0,0.1
		l0,0.2l0,0.8c0,0.1,0,0.3,0,0.5l-0.1,0.1L147,95c0,0,0,0.1,0,0.3l0,0.1l0,0.2c0,0.2,0,0.6,0,1.4c0,0,0,0,0,0.1l0,0.2h0l0,0.4
		l-0.1,0.2l0,0l0,0l0,0.1h0.1l0,0.2c0,0.1,0,0.1,0,0.2l0,0.1l0,0.1c0,0,0,0.1,0,0.2l0,0.6c0,0,0,0.1,0,0.1l0,0.1c0,0,0,0,0,0.1
		l0,0.1c0,0,0,0,0,0.1c0,0.1,0,0.2,0,0.2c0,0.3,0,0.5,0,0.7l0,0l0,1.1l-0.1,0.1l0,0.1v0.2l0,0.1c0,0.1,0.1,0.3,0.3,0.4l0.1,0
		c0,0,0.1,0,0.1,0l0.1,0l0.3,0l0.1,0c0.2-0.1,0.3-0.2,0.4-0.4l0-0.1l0-0.1l0,0l0-0.1c0-0.4-0.1-0.9-0.1-1.7l0-0.1l0-0.1
		c0-0.1,0-0.2,0-0.2l0-0.2h0l0-0.6l0.1-1.6l0-0.1l0.1,0l-0.1-0.3l0-0.3l0-0.3h0l0-0.2l0-0.1l0,0c0-0.8,0-1.5,0-2l0.1-1l0,0
		c0,0,0,0,0,0l0-0.2l0,0L148.4,91.9z"/>
	<path class="st1" d="M160.9,101.6L160.9,101.6c0-0.2,0-0.2,0-0.3v0c0,0,0-0.2,0-0.6v-0.1c0,0,0,0,0,0h0l0-0.2l0.1-0.3h-0.1l0-0.5
		l0-0.1l-0.1-1l0-0.2h0l-0.1-0.9l0,0l0-0.3c0-0.5-0.1-0.9-0.1-1.2h0l-0.1-0.6v-0.7c0-0.1,0-0.1,0-0.1c0-0.1,0-0.3,0-0.7l-0.1-0.9
		l0.1-0.4l0,0l0,0l0-0.1h-0.1l0-0.1l-0.1-0.1l0-0.2l0-0.3h0l0-0.1l0-0.2l-0.1-0.4l0.1-0.5h-0.1v0c0-0.4-0.3-0.6-0.8-0.7
		c-0.4,0-0.6,0.5-0.7,0.7l0,0.1c0,0.1,0,0.2,0,0.3l0,0c0,0,0,0.1,0,0.2c0,0,0,0.1,0,0.1l0,0.1l0,0.1l0,0.4c0,0.1,0,0.1,0,0.2l0,0.1
		c0,0.6,0,1.5,0.1,2.7c-0.4-0.5-0.8-1-1.1-1.5c-0.5-0.7-1-1.3-1.4-1.8c-0.4-0.5-0.6-0.7-0.8-0.8c-0.1-0.3-0.5-0.4-0.9-0.5l-0.4,0
		l-0.1,0c-0.2,0.2-0.4,0.4-0.4,0.5l0,0.7c0,0.2,0,0.4,0,0.5l0,0v0.2l-0.1,0.3h0.1c0,0.3,0,0.6-0.1,0.7l0,0.1l0,0.1l0,0.1l0,0.1
		c0,0,0,0.1,0,0.1v0.6c0,0.5,0,1.1,0,1.7c0,0,0,0,0,0.1l0,0.1l0,0.1c0,0,0,0,0,0l0,0.2c0,0,0,0.1,0,0.2l0,0.1c0,0.2-0.1,0.8-0.1,1.3
		l-0.1,0.2l0.1,0.1l-0.1,0.5h0.1c0,0,0,0,0,0l-0.1,0.1v0.1c0,0,0,0.1,0,0.1c0,0,0,0.1,0,0.1l0,0.7c-0.1,0.5-0.2,1.1-0.3,1.9l0,0.1
		l0,0.1c0.1,0.1,0.2,0.3,0.4,0.4l0.3,0c0.1,0,0.4-0.1,0.7-0.5l0-0.1v-0.1c0,0,0,0,0-0.1l0-0.1l0-0.1v-0.1c0-0.1,0-0.1,0-0.2
		c0-0.2,0.1-0.7,0.2-0.9h0.1l0-0.4l0-0.2l0-0.4l0.1-0.3l-0.1,0l0.1-0.6l0-0.1l0-0.4c0.1-0.3,0.1-0.7,0.1-1.3v-0.4c0,0,0-0.1,0-0.1
		c0,0,0-0.1,0-0.1c0-0.4,0-0.8,0.1-1.3l0-0.1l0-0.1l0-1l0-0.6h0c0-0.2,0.1-0.5,0.1-0.8c0.1,0.1,0.2,0.2,0.3,0.4l2,2.5
		c0.3,0.4,0.6,0.8,0.9,1.1c0.1,0.1,0.2,0.3,0.4,0.6l0.3,0.5h0c0,0.1,0.1,0.4,0.1,1l0,0.2l0.1,0.4v0.2c0,0.2,0,0.4,0.1,0.5l0,0l0,0.1
		c0,0,0,0.1,0,0.1h0l0.1,0.4l0,0.1l-0.1,0.1l0,0.2c0,0,0,0,0,0l0,0.1h0c0,0.2,0.1,0.5,0.1,1v0.1c0,0.1,0,0.2,0,0.4l0,0.1l0,0.1
		c0,0.1,0.1,0.2,0.3,0.3l0.8,0c0.3,0,0.4-0.4,0.4-0.6l0,0v-0.1l0.1-0.1l-0.1-0.1C160.9,101.7,160.9,101.6,160.9,101.6z"/>
	<path class="st1" d="M171.9,101.6L171.9,101.6c0-0.2,0-0.2,0-0.3v0c0,0,0-0.2,0-0.6v-0.1c0,0,0,0,0,0h0l0-0.2l0.1-0.3h-0.1l0-0.5
		l0-0.1l-0.1-1l0-0.2h0l-0.1-0.9l0,0l0-0.3c0-0.5-0.1-0.9-0.1-1.2h0l-0.1-0.6v-0.7c0-0.1,0-0.1,0-0.1c0-0.1,0-0.4,0-0.8l0-0.8
		l0.1-0.4l0,0l0,0l0-0.1h-0.1l0-0.1l-0.1-0.1l0-0.2l0-0.3h0l0-0.1l0-0.2l-0.1-0.4l0.1-0.5h-0.1v0c0-0.4-0.3-0.6-0.8-0.7
		c-0.4,0-0.6,0.5-0.7,0.7l0,0.1c0,0.1,0,0.2,0,0.3l0,0c0,0,0,0.1,0,0.2c0,0,0,0.1,0,0.1l0,0.1l0,0.1l0,0.4c0,0.1,0,0.1,0,0.2l0,0.1
		c0,0.6,0,1.5,0.1,2.7c-0.4-0.5-0.8-1-1.1-1.5c-0.5-0.7-1-1.3-1.4-1.8c-0.4-0.5-0.6-0.7-0.8-0.8c-0.1-0.3-0.5-0.4-0.9-0.5l-0.4,0
		l-0.1,0c-0.2,0.2-0.4,0.4-0.4,0.5l0,0.7c0,0.2,0,0.4,0,0.5l0,0v0.2l-0.1,0.3h0.1c0,0.3,0,0.6-0.1,0.7l0,0.1l0,0.1l0,0.1l0,0.1
		c0,0,0,0.1,0,0.1v0.6c0,0.5,0,1.1-0.1,1.7c0,0,0,0,0,0.1l0,0.1l0,0.1c0,0,0,0,0,0l0,0.2c0,0,0,0.1,0,0.2l0,0.1
		c0,0.3-0.1,0.9-0.1,1.3l-0.1,0.2l0.1,0.1l-0.1,0.5h0.1c0,0,0,0,0,0c0,0,0,0,0,0l-0.1,0.1v0.1c0,0,0,0.1,0,0.1c0,0,0,0.1,0,0.1
		l0,0.7c-0.1,0.5-0.2,1.1-0.3,1.9l0,0.1l0,0.1c0.1,0.1,0.2,0.3,0.4,0.4l0.3,0c0.2,0,0.5-0.1,0.7-0.5l0-0.1v-0.1c0,0,0,0,0-0.1l0-0.1
		l0-0.1v-0.1c0-0.1,0-0.1,0-0.2c0-0.2,0.1-0.7,0.2-0.9h0.1l0-0.4l0-0.2l0-0.4l0.1-0.3l-0.1,0l0.1-0.6l0-0.1l0-0.4
		c0.1-0.3,0.1-0.7,0.1-1.3v-0.4c0,0,0-0.1,0-0.1c0,0,0-0.1,0-0.1c0-0.4,0-0.8,0.1-1.3l0-0.1l0-0.1l0-1l0-0.6h0
		c0-0.2,0.1-0.5,0.1-0.8c0.1,0.1,0.2,0.2,0.3,0.4l2,2.5c0.3,0.4,0.6,0.8,0.9,1.1c0.1,0.1,0.2,0.3,0.4,0.6l0.3,0.5h0
		c0,0.1,0.1,0.4,0.1,1l0,0.2l0.1,0.4v0.2c0,0.2,0,0.4,0.1,0.5l0,0l0,0.1c0,0,0,0.1,0,0.1h0l0.1,0.4l0,0.1l-0.1,0.1l0,0.2
		c0,0,0,0,0,0l0,0.1h0c0,0.2,0.1,0.5,0.1,1v0.1c0,0.1,0,0.2,0,0.4l0,0.1l0,0.1c0,0.1,0.1,0.2,0.3,0.3l0.8,0c0.3,0,0.4-0.4,0.4-0.6
		l0,0v-0.1l0.1-0.1l-0.1-0.1C171.9,101.7,171.9,101.6,171.9,101.6z"/>
	<path class="st1" d="M178,91.9l0-0.6l-0.1-0.1l0-0.2c-0.1-0.5-0.2-0.9-0.5-0.9c0,0,0,0,0,0l-0.3,0l-0.6,0.2l0,0.3l0,0l0,0.3
		c0,0.1,0,0.1,0,0.2c0,0,0,0.1,0,0.1l0,0.1c0,0,0,0.1,0,0.1h-0.1l0.1,0.4l-0.1,0.1l0,0.1c0.1,0.2,0.1,0.3,0.1,0.5h0l0,0.5l0,0.1
		l0,0.2l0,0.8c0,0.1,0,0.3,0,0.5l-0.1,0.1l0.1,0.2c0,0,0,0.1,0,0.3l0,0.1l0,0.2c0,0.2,0,0.6,0,1.4c0,0,0,0,0,0.1l0,0.2h0l0,0.4
		l-0.1,0.2l0,0l0,0l0,0.1h0.1l0,0.2c0,0.1,0,0.1,0,0.2l0,0.1l0,0.1c0,0,0,0.1,0,0.2l0,0.6c0,0,0,0.1,0,0.1l0,0.1c0,0,0,0,0,0.1
		l0,0.1c0,0,0,0,0,0.1c0,0.1,0,0.2,0,0.2c0,0.3,0,0.5,0,0.7l0,0l0,1.1l-0.1,0.1l0,0.1v0.2l0,0.1c0,0.1,0.1,0.3,0.3,0.4l0.1,0
		c0,0,0.1,0,0.1,0l0.1,0l0.3,0l0.1,0c0.2-0.1,0.3-0.2,0.4-0.4l0-0.1l0-0.1l0,0l0-0.1c0-0.4-0.1-0.9-0.1-1.7l0-0.1l0-0.1
		c0-0.1,0-0.2,0-0.2l0-0.2h0l0-0.6l0.1-1.6l0-0.1l0.1,0l-0.1-0.3l0-0.3l0-0.3h0l0-0.2l0-0.1l0,0c0-0.9,0-1.5,0-2l0.1-1l0,0
		c0,0,0,0,0,0l0-0.2l0,0L178,91.9z"/>
	<path class="st1" d="M189.9,101.6L189.9,101.6c0-0.1,0-0.2,0-0.3v0c0,0,0-0.2,0-0.6v-0.1c0,0,0,0,0,0h0l0-0.2l0.1-0.3h-0.1l0-0.5
		l0-0.1l-0.1-1l0-0.2h0l-0.1-0.9l0,0l0-0.3c0-0.5-0.1-0.9-0.1-1.2h0l-0.1-0.6v-0.7c0-0.1,0-0.1,0-0.1c0-0.1,0-0.4,0-0.8l0-0.8
		l0.1-0.4l0,0l0,0l0-0.1h-0.1l0-0.1l-0.1-0.1l0-0.2l0-0.3h0l0-0.1l0-0.2l-0.1-0.4l0.1-0.5h-0.1v0c0-0.4-0.3-0.6-0.8-0.7
		c-0.4,0-0.6,0.5-0.7,0.7l0,0.1c0,0.1,0,0.2,0,0.3c0,0,0,0.1,0,0.2c0,0,0,0.1,0,0.1l0,0.1l0,0.1l0,0.4c0,0.1,0,0.1,0,0.2l0,0.1
		c0,0.6,0,1.5,0.1,2.7c-0.4-0.5-0.8-1-1.1-1.5c-0.5-0.7-1-1.3-1.4-1.8c-0.4-0.5-0.6-0.7-0.8-0.8c-0.1-0.3-0.5-0.4-0.9-0.5l-0.4,0
		l-0.1,0c-0.2,0.2-0.4,0.4-0.4,0.5l0,0.7c0,0.2,0,0.4,0,0.5l0,0v0.2l-0.1,0.3h0.1c0,0.3,0,0.6-0.1,0.7l0,0.1l0,0.1l0,0.1l0,0.1
		c0,0,0,0.1,0,0.1v0.6c0,0.5,0,1.1,0,1.7c0,0,0,0,0,0.1l0,0.1l0,0.1c0,0,0,0,0,0l0,0.2c0,0,0,0.1,0,0.2l0,0.1c0,0.2-0.1,0.8-0.1,1.3
		l-0.1,0.2l0.1,0.1l-0.1,0.5h0.1c0,0,0,0,0,0l-0.1,0.1v0.1c0,0,0,0.1,0,0.1c0,0,0,0.1,0,0.1l0,0.7c-0.1,0.5-0.2,1.2-0.3,1.9l0,0.1
		l0,0.1c0.1,0.1,0.2,0.3,0.4,0.4l0.3,0c0.2,0,0.5-0.1,0.7-0.5l0-0.1v-0.1c0,0,0,0,0-0.1l0-0.1l0-0.1v-0.1c0-0.1,0-0.1,0-0.2
		c0-0.3,0.1-0.7,0.2-0.9h0.1l0-0.4l0-0.2l0-0.4l0.1-0.3l-0.1,0l0.1-0.6l0-0.1l0-0.4c0.1-0.3,0.1-0.7,0.1-1.3v-0.4c0,0,0-0.1,0-0.1
		c0,0,0-0.1,0-0.1c0-0.4,0-0.8,0.1-1.3l0-0.1l0-0.1l0-1.6h0c0-0.2,0.1-0.5,0.1-0.8c0.1,0.1,0.2,0.2,0.3,0.4l2,2.5
		c0.3,0.4,0.6,0.8,0.9,1.1c0.1,0.1,0.2,0.3,0.4,0.7l0.3,0.5h0c0,0.1,0.1,0.4,0.1,1l0,0.2l0.1,0.4v0.2c0,0.2,0,0.4,0.1,0.5l0,0l0,0.1
		c0,0,0,0.1,0,0.1h0l0.1,0.4l0,0.1l-0.1,0.1l0,0.2c0,0,0,0,0,0l0,0.1h0c0,0.2,0.1,0.5,0.1,1v0.1c0,0.1,0,0.2,0,0.4l0,0.1l0,0.1
		c0,0.1,0.1,0.2,0.3,0.3l0.8,0c0.3,0,0.4-0.4,0.4-0.6l0,0v-0.1l0.1-0.1l-0.1-0.1C189.9,101.7,189.9,101.6,189.9,101.6z"/>
	<path class="st1" d="M201.9,96.8h0.1l-0.2-0.4c0,0-0.1-0.1-0.1-0.1c0-0.2-0.3-0.3-0.6-0.3l-0.1,0l0,0c-0.1,0-0.3,0-0.5,0h-0.3
		l-0.1,0.1l-0.1-0.1H200c0,0-0.1,0-0.3,0.1l-0.1,0l-0.2,0.1c0,0,0,0-0.1,0l-0.4,0c-0.1,0-0.1,0-0.2,0h0c0,0,0,0-0.1,0l-0.2-0.1
		l-0.1,0.1l-0.4-0.1c0,0,0,0-0.1,0l-0.2,0c0,0-0.1,0-0.1,0l0,0l-0.1,0l-0.3,0l-0.1,0c-0.1,0.1-0.1,0.1-0.1,0.1h-0.2l0,0.3l-0.1,0.3
		l0.1,0.1c0.1,0.2,0.3,0.4,0.6,0.5l0.6,0c0,0,0.1,0,0.1,0l0.2,0l0.5,0l0,0h0.1l0.3,0.1v-0.1h0c0,0,0.1,0,0.1,0c0,0,0.1,0,0.1,0h0.6
		l0.1,0l0.2,0c0,0,0.1,0,0.2,0l0,0.1l-0.1,0l0.1,0.3l0,0.7l-0.1,0.7l0,0.1l-0.1,0.4c-0.2,0.4-0.4,0.7-0.6,1
		c-0.1,0.1-0.1,0.2-0.2,0.2h0l-0.1,0.1c-0.1,0.2-0.4,0.3-0.7,0.5v0l-0.6,0.1c0,0-0.1,0-0.1,0l-0.6,0c0,0-0.1,0-0.1,0l-0.2,0
		c-0.3-0.1-0.5-0.2-0.6-0.2c-0.3-0.1-0.5-0.4-0.7-0.7c-0.3-0.5-0.5-1.2-0.7-1.8l0,0l0-0.1c-0.1-0.4-0.1-0.6-0.1-0.6l0-0.2l0.1-0.5
		h-0.1l0-0.4c0-0.1,0-0.2,0-0.3c0-0.1,0-0.2,0-0.3l0-0.5l0-0.1l0-0.6c0.1-0.8,0.2-1.2,0.2-1.3h0.1l0-0.2c0-0.2,0.1-0.6,1-1.7
		c0.2-0.3,0.6-0.5,1.4-0.8l0.1,0c0.4,0,0.8-0.1,0.9-0.1l0.5,0.1V91c0.1,0,0.2,0,0.3,0l0.1,0c0.5,0.1,0.6,0.2,0.7,0.2v0.2h0.2
		c0,0,0.1,0,0.1,0l0.2,0l0.1,0c0.3-0.2,0.4-0.4,0.4-0.6l0-0.1l-0.1-0.1c-0.1-0.1-0.1-0.1-0.1-0.1v-0.1l-0.1-0.1
		c-0.6-0.3-1.3-0.5-2.1-0.5v0l-0.3,0c-1,0.1-1.5,0.2-1.7,0.4c-0.2,0-0.5,0.2-0.9,0.5c-0.6,0.3-1,0.7-1.2,1.2
		c-0.3,0.4-0.5,0.8-0.7,1.5c0,0.2-0.1,0.4-0.1,0.5h-0.1l0,0.3c0,0.1,0,0.2,0,0.2l0,0.1c0,0.1,0,0.2-0.1,0.3l-0.1,0.3h0v0.3
		c0,0.1,0,0.3,0,0.4l0,0.1c0,0.2,0,0.4,0,0.6l0,0.8l-0.1,0.6h0c0,0,0,0.1,0,0.1l0,0l0,0.1l0,0.1l0,0.1c0,0,0,0,0,0.1l0,0.3h0
		c0.1,0.4,0.1,0.8,0.2,1.1c0,0,0,0,0,0.1l0,0.3h0.1c0,0.1,0.1,0.2,0.1,0.2h0l0.2,0.4c0.1,0.2,0.1,0.3,0.2,0.3c0.1,0.3,0.4,0.6,0.7,1
		c0.4,0.4,1,0.7,1.8,0.8l0.1,0l0,0c0,0,0,0,0.1,0v0l0.2,0l0.2,0v0c0.6,0,0.9-0.1,1-0.1c0.5,0,1-0.3,1.6-0.8c0.9-1,1.3-1.8,1.3-2.5
		l0-0.1c0,0,0,0,0,0l0-0.2l0-0.1c0,0,0-0.1,0-0.2l0-0.1l0,0l0.1-0.3l0-0.1c0-0.1,0-0.3-0.1-0.7l0-0.4h0v-0.1c0,0,0-0.1,0-0.1
		C201.9,97,201.9,96.9,201.9,96.8L201.9,96.8z"/>
	<path class="st1" d="M224.1,100.5l0-0.1l-0.3-0.3h-0.4c0,0-0.1,0-0.1,0l-0.1,0l-0.1,0.1c0,0-0.1,0.1-0.1,0.1H223l-0.1,0.1
		c-0.7,0.9-1.5,1.4-2.3,1.4c-0.8,0-1.6-0.3-2.3-0.7c-0.8-0.8-1.2-1.4-1.4-2.1h0.1l-0.1-0.3c0-0.1-0.1-0.2-0.1-0.4h0.1l-0.1-0.3
		c0-0.1-0.1-0.3-0.1-0.6c0-0.1,0-0.1,0-0.2l0-0.2l0-0.1c0-0.1,0-0.3,0.1-0.6l0-0.2l0,0l0-0.3c0.1-0.4,0.2-0.7,0.3-1.1l0-0.1
		c0-0.2,0.3-0.8,0.8-1.6l0-0.1c0,0,0.1-0.3,0.9-0.9c0.4-0.2,0.7-0.3,1-0.3l0.2,0c0,0,0.1,0,0.1,0l0.2,0c0.8,0,1.5,0.2,2,0.5v0h0.2
		c0.2,0,0.4-0.1,0.5-0.3l0-0.1v-0.4c0-0.1-0.1-0.2-0.3-0.4l-0.1,0c-0.2-0.1-0.5-0.2-0.6-0.3l-0.1,0c-0.5-0.1-1-0.2-1.7-0.3h-0.4
		l-0.4-0.1v0.1c0,0,0,0,0,0c-0.9,0-1.8,0.5-2.7,1.5c-1,1.5-1.5,3-1.5,4.5l0,0.4l0,0.2c0,0.1,0,0.1,0,0.3c0,0,0,0.1,0,0.1l0,0l0,0.1
		c0,0.5,0.1,0.8,0.1,1c0,0.8,0.5,1.8,1.5,3c0.2,0.1,0.2,0.2,0.3,0.2l0.1,0.1c0.5,0.4,1.2,0.8,2.1,1.1l0.1,0l0.1,0
		c0.2,0,0.4,0.1,1.1,0.2h0.1v0l0.3,0c0.4-0.1,0.7-0.1,0.8-0.2c0.2,0,0.5-0.1,0.9-0.4c0.4-0.2,0.8-0.6,1.3-1.2l0.1-0.1v-0.1
		c0,0,0-0.1,0-0.1l0-0.1C224.2,100.7,224.1,100.6,224.1,100.5z"/>
	<path class="st1" d="M231.4,97.3l-0.7-0.7c0,0,0,0,0,0l0.1,0l0.1,0c0.9-0.2,1.7-0.6,2.2-1.2c0.5-0.5,0.9-1.3,1.1-2.4l0-0.1l0,0
		l0-0.1L234,92c-0.3-0.8-0.7-1.3-1.3-1.5c-0.7-0.3-1.7-0.4-2.8-0.5l-0.3,0v0c-0.7,0-0.9,0.1-1,0.2c-0.5,0.1-0.5,0.8-0.5,1.1v0.2
		l-0.1,0.3h0.1c0,0.5,0,1.3,0,2.3h0l0.1,0.5V95c0,0.1,0,0.1,0,0.2l0,0.1l0,0.1c0,0.1,0,0.1,0,0.2l0,0.9l-0.1,0.5h0.1l0,0.1l0,0.1
		l0,0.1l0,0l0,0.2l0,0.1l0,0l0,0.1l0.1,0.2c0,0.1,0,0.1,0,0.1l0,0.7l-0.1,0.5h0l0,0.2h0l0,0.5h0l0,0.7h0l0,0.8l0,0.4h0v0.1
		c0,0,0,0.1,0,0.1c0,0.1,0,0.1,0,0.2c0,0.1,0.1,0.2,0.2,0.3c0.1,0.1,0.2,0.2,0.3,0.2c0.4,0,0.6-0.3,0.7-0.8l0,0l0-0.3
		c0,0,0-0.1,0-0.1v-0.2h-0.1c0-0.1,0-0.2,0-0.3l0-0.1l0-0.1l0-0.7l0-0.4h0l0-0.1c0-0.1,0-0.1,0-0.2l0-0.9h0.1l-0.1-0.3l0-0.7
		c0.2,0.2,0.5,0.5,0.9,0.8c0.5,0.6,1.2,1.5,2.1,2.8c1.1,1.5,1.2,1.6,1.3,1.6c0,0,0.1,0,0.1,0l0.3,0c0.2-0.1,0.4-0.3,0.4-0.5l0-0.2
		c0-0.1,0-0.3-1.3-1.9C233,99.5,232.4,98.6,231.4,97.3z M229.5,94.5l0-0.3l0-0.1c0,0,0-0.1,0-0.5l0-0.1l0-0.3l0.1,0l-0.1-0.3l0-0.9
		l0,0c0,0,0,0,0,0v-0.3c0-0.2,0-0.3,0-0.4l0.2,0l0.1,0l0.1,0l0,0c0.3,0,0.6,0,0.9,0.1l0.1,0c0.4,0,1,0.2,1.7,0.5
		c0.3,0.3,0.5,0.7,0.5,1.1c0,0.2-0.1,0.5-0.2,0.7l-0.2,0.4h0.1c-0.3,0.4-0.6,0.7-1.1,0.9c-0.5,0.3-1.2,0.4-1.9,0.4L229.5,94.5
		L229.5,94.5z"/>
	<path class="st1" d="M247,89.6h-0.4c-0.2,0-0.3,0.2-0.4,0.3c-0.1,0.2-0.2,0.3-0.2,0.4h0l-0.1,0.1c-0.2,0.4-0.8,1.5-1,1.7l-0.1,0.1
		c-0.5,0.8-1,1.7-1.6,2.6c-0.1,0.1-0.1,0.2-0.2,0.3c-0.3-0.6-0.7-1.1-1-1.6c-0.8-1.3-1-1.6-1.1-1.7c-0.9-1.4-1.1-1.7-1.3-1.8
		l-0.1-0.1l-0.1,0c0,0-0.1,0-0.1,0l-0.1,0c0,0,0,0-0.1,0c0,0-0.1,0-0.1,0c-0.3,0-0.3,0.3-0.4,0.5c0,0.4,0.2,0.8,0.4,1l1,1.5
		c0.3,0.5,0.4,0.6,0.4,0.6v0.1l0,0.1c0.5,0.6,1,1.5,1.8,2.8c0,0.1,0,0.2,0,0.3v0.5l0,0c0,0,0,0,0,0.1l0,0.1l0,0.1l0.1,0.1l0,0.2
		l0,0.2l0,0l0,0.1c0,0,0,0,0,0l0,1.2c0,0.2,0,0.8,0.1,1.8l0,0.1c0,0,0,0.1,0,0.1c0,0,0,0.1,0,0.1h0l0,0.3c0,0.6,0.2,0.8,0.6,0.8
		l0.3,0v0c0.2-0.1,0.3-0.2,0.4-0.5l0-0.3c0-0.1,0-0.2,0-0.4l0-0.2h0l-0.1-0.6l0.1-0.1l-0.1-0.1l0-2l0.1-0.4l0-0.2l0.1-0.5h0l0,0
		l0-0.1c0-0.1,0-0.2,0-0.3c0-0.1,0.1-0.3,0.1-0.5c0.5-0.7,0.9-1.3,1.1-1.8c0.6-0.9,1.1-1.8,1.7-2.7c0.3-0.5,0.4-0.6,0.4-0.7
		c0.3-0.4,0.3-0.6,0.3-0.6C247.4,90.2,247.3,90,247,89.6L247,89.6z"/>
	<path class="st1" d="M267,89.8h-0.2c-0.2,0-0.4,0-0.5,0l0,0h-0.1l-0.3-0.1v0.1l-0.4,0c-0.8,0.1-1.3,0.1-1.6,0.1l0,0l-0.3,0
		c-0.3,0-0.5,0-0.7,0.1l-0.1,0c-0.4,0-0.8,0.1-1.1,0.1h-0.1l0,0c0,0-0.1,0-0.1,0c0,0-0.1,0-0.1,0H261c-0.2,0-0.3,0.2-0.4,0.7l0,0
		l0.1,1.4l0,1.1c0,0,0,0.1,0,0.1l0,0.1l0,0.2l0,0.2c0,0.1,0,0.1,0,0.2c0,0,0,0,0,0.1l0,0.1l0.1,0.4h-0.1l0.1,0.2l-0.1,0.2h0.1
		l-0.1,0.5h0.1v0.3h0l0,0.3c0.1,0.6,0.1,1,0.1,1.2v0.1c0,0,0,0.1,0,0.1l-0.2,0.3h0.2c0,0.3,0.1,1,0.1,1.4h0l0,0.5c0,0.2,0,0.3,0,0.4
		v0.4l0,0.1c0,0,0,0.1,0,0.1c0,0,0,0.1,0,0.1l0,0.1l0,0.1l0,0.1l0.1,0.2l0,0.1l0,0.1l0,0.7c0,0.7,0.3,0.9,0.5,0.9h0.3l0.2,0v-0.1
		c0.3-0.1,0.3-0.4,0.3-0.5V102h0.1l-0.1-0.3l0-1.2c0,0,0-0.1,0-0.2l0.1-0.1l0-0.1l0-0.8l0-0.1c0-0.6-0.1-1.6-0.2-2.8l0,0l0.2-0.1
		l0.1,0l0.2,0h0.2c0.1,0,0.1,0,0.3,0l0.5,0v0c0.3,0,0.5,0,0.7,0l0.3,0v0c0.1,0,0.2,0,0.3,0c0.2,0,0.5,0,1.1-0.1c0,0,0.1,0,0.1,0v0
		h0.2c0.3,0,0.6-0.2,0.7-0.4l0-0.1l0-0.1c-0.1-0.6-0.5-0.8-0.8-0.7l0,0l-0.1,0c-0.2,0-0.3,0-0.4,0l-0.3,0l-0.4,0v0l-0.2,0l0,0l0-0.1
		l-0.3,0.1l-0.2,0v0c-0.3,0-0.4,0-0.6-0.1l-0.3-0.1v0.1l-0.2,0c0,0-0.1,0-0.1,0l-0.1,0l-0.9,0l0-0.6h0l0,0l-0.1-0.1l0-0.7l0-0.4h0
		v-0.7c0-0.1,0-0.1,0-0.1l0.1-0.1l0-0.1c0-0.1,0-0.1,0-0.2l0-0.3c0,0,0-0.1,0-0.2l0.1-0.1l-0.1-0.1l0,0c0.2,0,0.5,0,0.7,0l0.3,0
		l0.1,0c0,0,0.1,0,0.1,0c0,0,0.1,0,0.1,0l0.6,0c0.4,0,0.7,0,1,0v0l0.4-0.1l0.1,0l0.1,0l0,0c0.2,0,0.8,0,1.9,0.1
		c0.3,0,0.5-0.2,0.6-0.5l0-0.1l-0.1-0.1C267.8,90.2,267.7,89.8,267,89.8z M261.7,92.4L261.7,92.4L261.7,92.4L261.7,92.4L261.7,92.4z
		"/>
	<path class="st1" d="M280.4,95L280.4,95l0-0.3l0,0c0-0.1,0-0.2,0-0.3l0-0.1h0l0-0.3l0,0c0-0.1,0-0.2-0.1-0.4h0l-0.1-0.3
		c0-0.2-0.1-0.4-0.1-0.5l0-0.1c0-0.1,0-0.1-0.2-0.5l-0.1-0.3c-0.4-0.9-0.9-1.4-1.2-1.6c-0.4-0.3-0.7-0.4-1.1-0.5l0,0
		c-0.2-0.2-0.5-0.2-0.9-0.2h-0.2c-0.2,0-0.4,0-0.6,0l-0.2,0l-0.1,0h-0.3v0l0,0c0,0-0.1,0-0.1,0.1c-0.2,0-0.4,0-0.6,0v-0.1l-0.3,0.2
		c-0.1,0-0.1,0-0.1,0.1c-0.3,0-0.6,0.2-0.9,0.6c-0.4,0.3-0.8,0.9-1,1.5l0,0.1l0,0c-0.2,0.5-0.4,1.1-0.5,1.9l-0.1,0.4h0l-0.1,0.4h0.1
		c0,0.4,0,0.8,0,1.3l0,0.3l0,0.1v0.2h0l0,0.3c0,0.5,0.2,1.3,0.5,2.6c0.3,0.9,0.9,1.7,1.8,2.4c0.1,0.2,0.5,0.3,2,0.6l0.1,0
		c0,0,0.1,0,0.1,0l0,0l0,0c0,0,0,0,0,0l0,0v0c0.3,0,0.5-0.1,0.6-0.1c0.6-0.2,1.3-0.6,1.9-1.2c0.2-0.2,0.5-0.6,0.6-1
		c0.2-0.3,0.3-0.9,0.6-1.8l0.1-0.3h0c0,0,0-0.1,0-0.1l0-0.3h0c0.1-0.3,0.1-0.8,0.2-1.3l0,0h0l0-0.8l0-0.1c0,0,0-0.1,0-0.1l0-0.2
		l0.1,0l0-0.2V95z M279,95.7l0,0.4c0,0.4-0.1,1.4-0.2,1.8h-0.1l0,0.2c-0.1,0.5-0.1,0.8-0.1,0.9h-0.2l0.1,0.3c0,0.1-0.1,0.2-0.1,0.4
		l0,0.1c-0.1,0.3-0.3,0.6-0.6,1c-0.7,0.6-1.2,0.9-1.6,0.9c-0.2,0-0.3,0-0.4,0v-0.1h-0.2c-0.4,0-0.8-0.2-1.1-0.5
		c-0.3-0.3-0.6-0.6-0.7-0.9c-0.2-0.6-0.4-1.5-0.7-2.7h0l-0.1-0.3l0-0.8l0.1-0.5H273l0,0c0,0,0-0.1,0-0.1c0,0,0-0.1,0-0.1l0-0.5
		l0.1-0.5H273c0,0,0-0.1,0-0.1l0,0c0-0.1,0-0.1,0-0.2l0-0.1l0-0.1c0.2-0.8,0.4-1.5,0.7-2.2c0.3-0.3,0.4-0.4,0.4-0.5h0.2v-0.1
		c0.1,0,0.4-0.1,1.1-0.3l0.1,0c0.1,0,0.2,0,0.3-0.1l0.6,0c0,0,0.1,0,0.1,0c0,0,0.1,0,0.1,0c0.8,0.2,1.1,0.4,1.3,0.6
		c0,0.1,0.1,0.2,0.2,0.2l0.3,0.5c0.1,0.2,0.1,0.3,0.2,0.3c0.1,0.4,0.2,0.6,0.2,0.8v0.2c0,0.1,0,0.1,0,0.2l0,0.1l0,0.1l0,0.1
		c0,0,0,0,0,0.2l0,0.1l0.1,0.7c0,0.1,0,0.2,0,0.3l0,0.1L279,95.7z"/>
	<path class="st1" d="M288.2,97.3l-0.7-0.7c0,0,0,0,0,0l0.1,0l0.1,0c0.9-0.2,1.7-0.6,2.2-1.2c0.5-0.5,0.9-1.3,1.1-2.4l0-0.1l0,0
		l0-0.1l-0.2-0.9c-0.3-0.8-0.7-1.3-1.3-1.5c-0.7-0.3-1.7-0.4-2.8-0.5l-0.3,0v0c-0.7,0-0.9,0.1-1,0.2c-0.5,0.1-0.5,0.8-0.5,1.1v0.2h0
		l-0.1,0.3h0.1c0,0.5,0,1.3,0,2.3h0l0.1,0.5V95c0,0.1,0,0.1,0,0.2l0,0.1l0,0.1c0,0.1,0,0.1,0,0.2l0,0.9l-0.1,0.5h0.1l0,0.1l0,0
		l0,0.1l0,0.1l0,0l0,0.2l0,0.1l0,0l0,0.1l0,0.2c0,0.1,0,0.1,0,0.2l0,0.7l-0.1,0.5h0l0,0.2h0v1.2h0l0,0.3l0,0.6l-0.1,0.4h0v0.1
		c0,0,0,0.1,0,0.1c0,0.1,0,0.1,0,0.2c0,0.1,0.1,0.2,0.2,0.3c0.1,0.1,0.2,0.2,0.3,0.2c0.4,0,0.6-0.3,0.7-0.8l0,0l0-0.3
		c0,0,0-0.1,0-0.1v-0.2h-0.1c0-0.1,0-0.2,0-0.3l0-0.1l0-0.1l0-0.7l0-0.4h0l0-0.1c0-0.1,0-0.1,0-0.2l0-0.9h0.1l-0.1-0.3l0-0.7
		c0.2,0.2,0.5,0.5,0.9,0.8c0.5,0.6,1.2,1.5,2.1,2.8c1.1,1.5,1.2,1.6,1.3,1.6c0,0,0.1,0,0.1,0h0.2l0.1,0c0.2-0.1,0.4-0.3,0.5-0.5
		l0-0.2c0-0.1,0-0.3-1.3-1.9C289.9,99.5,289.3,98.6,288.2,97.3z M286.3,94.5l0-0.3l0-0.1c0,0,0-0.1,0-0.5l0-0.1l0-0.3l0.1,0
		l-0.1-0.3l0-0.9l0,0c0,0,0,0,0,0v-0.3c0-0.2,0-0.3,0-0.4l0.2,0l0.1,0l0.1,0l0,0c0.3,0,0.6,0,0.9,0.1l0.1,0c0.5,0,1,0.2,1.7,0.5
		c0.3,0.3,0.5,0.7,0.5,1.1c0,0.2-0.1,0.5-0.2,0.7l-0.2,0.4h0.1c-0.3,0.4-0.6,0.7-1.1,0.9c-0.5,0.3-1.2,0.4-1.9,0.4L286.3,94.5
		L286.3,94.5z M285.2,97L285.2,97l0.1,0l0,0L285.2,97z"/>
	<path class="st1" d="M311.4,100.4l0-0.2l0,0c0,0,0-0.1,0-0.1l0-0.1l0-0.1c0-0.2,0-0.4,0-0.5V99c0-0.4,0-0.9,0-1.6l0.1-0.1l-0.1-0.1
		l0-0.4l0,0v-0.2l0.1-0.3l-0.1,0c0-0.5,0.1-0.8,0.1-0.8l0-0.2l0-0.1c0,0,0-0.1,0-0.2l0-0.1l0-0.1l0,0c0-0.4,0.1-0.8,0.1-1.4v-0.5h0
		l0-0.3c0-0.7-0.1-1.1-0.1-1.3l0-0.2c0-0.8-0.4-1-0.7-1h-0.1c-0.3,0-0.5,0.2-0.5,0.3l0,0.4l0,0.1l0,0.1v0.3c0,0,0,0.1,0,0.1l0,0.2
		l0,0.1c0,0,0,0.1,0,0.6l0,0.9l0,0.1c0,0,0,0.1,0,0.2v0.1c0,0,0,0.1,0,0.1l0,0.2l0.1,0l0,0.1c0,0.3,0,0.5,0,0.6l0,0.2l-0.1,0.5h0.1
		c0,0,0,0,0,0.1l0,0.5l-0.2,0l-0.1,0l-0.1,0l0,0l-1,0l-0.5-0.1v0.1l-0.2,0l0,0l0,0l-0.2,0c-0.1,0-0.1,0-0.1,0h-0.1c0,0,0,0-0.1,0
		l-0.1,0l-0.1,0c0,0-0.1,0-0.1,0c-0.1,0-0.3,0-0.5,0l-0.8,0c0,0-0.1,0-0.1,0c0,0-0.1,0-0.1,0l-0.6,0c0-0.1,0-0.2,0-0.3l0-0.2l0-0.3
		l0-0.1l0-0.2h0l0-0.1l0.1-0.2h-0.1l0-0.1l0-0.1l0-0.1c0,0,0-0.1,0-0.3l0,0l-0.1-1.2l0-0.3l0,0l0-0.1c0,0,0-0.3-0.1-0.9h0.1l0-0.1
		l0.1-0.2l-0.2-0.1l0-0.3c0-0.4-0.2-0.6-0.3-0.7l-0.1,0l-0.3,0c-0.5,0.1-0.6,0.4-0.6,0.5l0,0.1c0,0.2,0,0.4,0,0.5l0,0.1h0l0,0.5
		l0,0.1l0,0.1c0,0,0,0,0,0.1l-0.1,0l0.1,0.4l0,0.1l0,0.1h0l0,0.3c0,0.3,0.1,0.7,0.1,1h0l0.1,0.6V95l0,0c0,0,0,0,0,0.1
		c0,0,0,0.1,0,0.1v0.2h-0.1l0.1,0.4c0,0,0,0.1,0,0.2l0,0l0,0.2l-0.1,0.1l0.1,0.1c0,0.3,0,0.6,0,1l0,0.3h0l0,0.3c0,0,0,0.1,0,0.1h0
		l0,0.4c0,0.1,0,0.2,0,0.3v0.1c0,0.1,0,0.1,0,0.2l0,0.1l0,0.2h0l0.1,0.9l0,0c0,0,0,0.1,0,0.1l0,0.8l0,0.2l-0.1,0.1l0,0l-0.1,0.4h0.1
		l0,0.1c0.1,0.2,0.3,0.4,0.5,0.6l0.1,0.1h0.1c0.1,0,0.1,0,0.1,0l0,0l0.1,0c0.2,0,0.3-0.1,0.4-0.2l0-0.1v-0.5c0-0.1,0-0.3,0-0.5
		c0,0,0-0.1,0-0.1l0-1.1l0-0.1c-0.1-0.2-0.1-1.8-0.1-2.4v-0.1c0,0,0,0,0-0.1l0,0l0-0.4l1,0c0,0,0.1,0,0.4,0l0.3,0.1v-0.1h0.1
		c0,0,0,0,0,0l0.2,0c0.1,0,0.1,0,0.2,0l0,0c0,0,0.1,0,0.1,0v0l0.5-0.1l0.4,0.1v-0.1l0.9,0l0.3,0l0.1,0l0,3.1c0,0.2,0,0.4,0,0.5v0.1
		c0,0.1,0,0.2,0,0.3l-0.1,0l0.1,0.3c0,0.2,0.1,0.3,0.1,0.5v0.1l0,0.1c0.1,0.1,0.2,0.2,0.3,0.3l0.4,0c0.2,0,0.4-0.2,0.6-0.3l0.1-0.1
		l0-0.1C311.5,101.5,311.5,101,311.4,100.4z M304.3,101.6l0.1,0l0.1,0c0,0,0,0,0,0L304.3,101.6z"/>
	<path class="st1" d="M323.3,101.4C323.3,101.4,323.3,101.4,323.3,101.4L323.3,101.4c-0.2,0-0.2,0-0.2,0l0,0l-0.5-0.1v0.1h-0.7
		c-0.2,0-0.4,0-0.5,0c-0.1,0-0.2,0-0.3,0l-0.1,0l0,0l-0.2,0v0l-0.1,0l-0.2,0c-0.1,0-0.1,0-0.2,0h-0.1l0,0c0,0-0.1,0-0.1,0h-0.3
		c-0.1,0-0.2,0-0.3,0c-0.2,0-0.4-0.1-0.7-0.1c-0.3,0-0.5,0-0.7,0l-0.3,0l0,0l0-0.1v-0.1c0-0.1,0-0.1,0-0.2l0-0.1l0-0.1l0-0.1l0-0.2
		c0,0,0,0,0,0l0-0.1l0-0.1c0-0.1,0-0.2,0-0.3v-0.3c0,0,0,0,0,0l0.1,0l-0.1-0.3l0-0.2h0l-0.1-0.5v-0.5l0.1,0v-0.5h-0.1
		c0-0.1,0-0.3-0.1-0.6c0,0,0.1,0,0.1,0h0.3c0,0,0.1,0,0.1,0l0.1,0l0.1-0.1c0.3,0,0.7,0,1.3-0.1c0,0,0.1,0,0.2,0l0.1,0l0,0l0.1,0
		c0.2,0,0.3,0,0.3,0h0.3c0.1,0,0.1,0,0.2,0l0,0l0.1,0c0.1,0,0.2,0,0.3,0l0.1,0l0.4,0V97c0,0,0,0,0,0l0.1,0h0.1l0.1,0
		c0.1-0.1,0.3-0.2,0.3-0.4c0.1-0.1,0.1-0.1,0.1-0.2v-0.1l0-0.1c-0.1-0.2-0.2-0.3-0.4-0.4l-0.1,0l-0.2,0l-0.1-0.1l-0.2,0
		c0,0-0.2,0-0.4,0.1c-0.1,0-0.2,0-0.3,0l0-0.1l-0.4,0.1l-0.2-0.1l-0.1,0H320c-0.3,0-0.5,0-0.7,0h-0.7c-0.1,0-0.2,0-0.3,0.1
		c0,0-0.1,0-0.1,0h-0.5l0-0.2l0.1-0.5h-0.1l0-0.1l-0.1-0.1V95c0-0.3,0-0.6,0-1l0-0.3l0-0.1l0-0.1c0,0,0-0.1,0-0.1V93
		c0,0,0-0.1,0-0.1l0-0.1l-0.1-0.1l0-0.1l0.1-0.5h-0.1l0-0.2l0,0v-0.1l0.1-0.2l0.1,0c0,0,0,0,0,0l0.1,0l0.1-0.1l0.5,0.1l0-0.1l0,0
		c0.2,0,0.5,0,0.7,0l0.8,0.1l0.4,0l0,0c0.3,0,0.5,0,0.7,0.1l0.1,0l0,0l0.1,0l0,0l0.3-0.1l0.1,0.1l0.1,0l0.4,0l0,0.1l0.3-0.1l0.4,0
		l0.1-0.2c0-0.1,0.1-0.2,0.1-0.2l0.1-0.1v-0.1c0-0.1,0-0.2-0.1-0.3c-0.1-0.1-0.2-0.3-0.5-0.4l-0.1,0l-0.2,0l-0.1-0.1l-0.1,0h0
		c0,0,0,0,0,0v-0.1l-0.3,0.1l-0.6,0c-0.1,0-0.2,0-0.2,0l-0.1,0l-0.4,0c-0.2,0-0.5,0-0.8,0l-0.6,0c0,0,0,0,0,0l0,0l-0.1,0l-0.1,0
		h-0.1c-0.1,0-0.2,0-0.3,0c-0.2,0-0.5,0-0.9,0l-0.1,0c-0.1,0-0.2-0.1-0.2-0.1l-0.1,0l-0.4,0.1c-0.2,0-0.3,0.2-0.4,0.5l0,0.1l0,0.2
		l-0.1,0.4h0.1l-0.1,0.5h0l0,0.4h0l0,0.1l0,0c0,0.1,0,0.2,0,0.3l0,0.1l0.1,0.1l0,0.1l0,0.1l0.1,0.1l0,0.3l0,0.1c0,0,0,0.1,0,0.2
		c0,0,0,0.1,0,0.1l0,0.1l0,0.1l0,0.1l0.1,0.1l0,0.4l-0.1,0.5h0.1c0,0.1,0,0.3,0,0.5c0,0,0,0.1,0,0.1c0,0,0,0.1,0,0.1l0,0.1
		c0,0.1,0,0.1,0,0.2v0.4h0l0,0.3c0,0.3,0.1,0.6,0.1,1h-0.1l0.1,0.4l0,0.1l0.1,0.3c0,0,0,0.1,0,0.1l0,0.1c0,0,0,0,0,0.1l0,0.2l0,0.2
		l0,0.1l0,0.3v0.1c0,0.1,0,0.2,0,0.3c0,0,0,0.1,0,0.1l0,1.4l0,0.5l0,0l0.1,0.1c0.2,0.3,0.4,0.5,0.5,0.5v0.1l0.3,0c0.1,0,0.2,0,0.3,0
		l0.2,0c0,0,0.1,0,0.2,0l0,0c0.2,0,0.3,0,0.4,0c0,0,0,0,0,0l1.8,0l0.2,0c0.1,0,0.2,0,0.3,0l0,0l0.1,0c0.2,0,0.4,0,0.7,0l0.2,0l0.1,0
		c0.1,0,0.2,0,0.2,0l0.5,0c0.1,0,0.2,0,0.3,0l0.3,0c0.2,0,0.4-0.1,0.5-0.3c0.1-0.1,0.2-0.2,0.2-0.4v-0.1l0-0.1
		C323.7,101.6,323.6,101.4,323.3,101.4z M319.8,96.9C319.8,96.9,319.8,96.9,319.8,96.9L319.8,96.9L319.8,96.9z"/>
	<path class="st1" d="M335.7,101.5L335.7,101.5l-0.2-0.1c0,0,0,0,0,0l-0.2-0.1l0,0l-0.3,0c-0.4,0-0.7,0.1-0.8,0.1
		c-0.1,0-0.3,0-0.5,0l-0.1,0l-0.9-0.1l-0.5,0c-0.2,0-0.4,0-0.7,0l-1.4,0l0,0c0,0-0.1,0-0.1,0l-0.1-0.4l0.1-0.1l0-0.1l0,0l0-0.1
		c0-0.1,0-0.2,0-0.8l0-0.1l0-0.2l0-0.1c0-0.1,0-0.2,0-0.4c0-0.2,0-0.5,0-0.9h0.1l-0.1-0.3l0-1c0-0.1,0-0.1,0-0.2h0.1l0-0.3l0-0.2
		l-0.1,0v-0.7c0-0.3,0-0.6,0-1.1l0-0.5l0.1-0.1l0-0.2l0-0.3l0.1-0.5h-0.1c0,0,0-0.1,0-0.1c0-0.1,0-0.2,0-0.4l0.1-0.2l-0.1-0.1
		c0-0.1,0-0.4,0.1-0.7l0-0.1l0-0.1c-0.2-0.5-0.4-0.7-0.7-0.7h-0.2v0.1c-0.3,0.1-0.5,0.4-0.5,1.1l0,0.1c0,0.1,0,0.2,0,0.3l0,0.1
		l0,0.2l-0.1,0.3l0,0.1V93c0,0,0,0.1,0,0.1l0,0.1c0,0,0,0.6,0,1.6l-0.1,0.5h0.1l0,0.1l0,0l0,0.1l0.1,0.1l0,0.2l0,0.1l0.1,0.1l0,0.7
		l-0.1,0.5l0.1,0l0,0.1c0,1.4,0,2.4,0,2.8h0l0,0.3c0.1,0.7,0.1,1.2,0.1,1.4l0,0.1c0,0.1,0.1,0.2,0.2,0.3c0.2,0.5,0.4,0.5,0.6,0.5
		c0,0,0,0,0,0c0.3,0,0.5,0,0.6,0c0,0,0,0,0,0h2c0,0,0.1,0,0.1,0l0.2,0l0,0c0,0,0.1,0,0.1,0l0.4,0l0.4,0v0c0.1,0,0.1,0,0.2,0l0,0l1,0
		l0.2,0l0.9-0.1c0,0,0.1,0,0.1,0h0.1l0,0l0.2,0.1l0.1-0.2c0.1-0.1,0.1-0.3,0.2-0.6l0.1-0.3h-0.2
		C335.8,101.6,335.7,101.6,335.7,101.5z M332.1,102.4L332.1,102.4L332.1,102.4L332.1,102.4z"/>
	<path class="st1" d="M346.9,92c-0.3-0.5-0.6-0.9-1.1-1.2c-0.4-0.4-1.1-0.6-2-0.8l-0.1,0l-0.5-0.1l0,0c-0.2,0-0.4-0.1-0.7-0.1v0
		l-0.4,0.1l-0.1,0l-0.4,0c-0.4,0-0.6,0-0.8,0.1c-0.4,0-0.6,0.2-0.6,0.4c-0.1,0.1-0.2,0.2-0.2,0.4l0,0.3l0,0c0,0,0,0.1,0,0.1v0.1
		l0,0.1l0,0.1l0.1,0.1l0,0.2l0,0.2l-0.1,0.1l0,0.1l0,0.1l0,0.2h-0.1l0,0.3l0,1.2c0,0.1,0,0.2,0,0.3l0,0.1c0,0,0,0,0,0.1
		c0,0.1,0,0.2,0,0.3l0,0.1l0.1,0c0,0,0,0,0,0l0,0.1l0,0.1c0,0.2,0,0.4,0,0.7v0.3c0,0,0,0.1,0,0.1l0,0.1l0.1,0.1l0,0.1l0,0.1l0,0.3
		l-0.1,0.5h0.1l-0.1,0.3l0.1,0l-0.1,0l0.1,0.2L340,98h0.1l0,0.3l-0.1,0l0.1,0.4V99c0,0.3,0,0.8,0.1,1.6l0,0c0,0,0,0,0,0l0,1.2l0,0.1
		c0,0,0,0,0,0l0,0.3h0c0.1,0.2,0.2,0.3,0.4,0.4l0.1,0l0.1,0c0.4-0.1,0.7-0.3,0.8-0.5l0-0.1l0-0.3l0-0.4h-0.1v-0.3c0-0.1,0-0.2,0-0.3
		c0,0,0-0.1,0-0.1v-0.2h0c0-0.3,0-0.8,0-1.1l0.1-0.5h-0.1c0-0.5,0-0.8,0-1c0-0.1,0-0.2,0-0.3l0-0.5l0-0.1c0,0,0,0,0-0.1l0.8,0.1v0
		c1.1,0,1.8-0.1,2.3-0.3c0.5-0.2,1-0.4,1.4-0.8c0.9-0.8,1.3-1.6,1.3-2.5v-0.2h0l0-0.3C347.1,92.4,347,92.1,346.9,92z M340.1,97
		C340.1,97,340.1,97,340.1,97L340.1,97L340.1,97z M342.1,91.3l0.5-0.1c0.2,0,0.6,0.1,1,0.1c0.8,0.1,1.3,0.4,1.5,0.6
		c0.1,0.1,0.2,0.2,0.3,0.2c0.2,0.2,0.3,0.5,0.3,0.9v0.1c0,0,0,0.1,0,0.1c0,0,0,0.1,0,0.1v0.2c-0.3,0.7-0.5,1-0.6,1.2l-0.1,0.1v0.1
		c0,0-0.1,0.2-0.9,0.5l-0.2,0.1v0c-0.2,0-0.6,0.1-1.7,0.2c-0.5,0-0.7-0.1-0.8-0.1v-0.2c0-0.3,0-0.6,0-0.8l0,0l-0.1-0.3l0-0.1
		l-0.1-0.1v-0.1c0-0.1,0-0.2,0-0.3l0-0.1l0-0.1l0-0.1l0-0.1v-0.9c0-0.1,0-0.2,0-0.4l0,0c0,0,0-0.1,0-0.1l0-0.1l0-0.1l0-0.1l0-0.1
		l0-0.2l0-0.2l0.5,0v0l0.1,0L342.1,91.3L342.1,91.3z"/>
	<path class="st1" d="M353.2,101.6c-0.2-0.5-0.4-0.7-0.8-0.7c-0.1,0-0.2,0-0.2,0c-0.4,0-0.7,0.4-0.8,0.9c0,0.2,0.1,0.5,0.5,0.8
		l0.1,0l0.2,0l0.3,0.1l0.1-0.1c0.3-0.2,0.5-0.4,0.6-0.6l0-0.1L353.2,101.6L353.2,101.6z"/>
</g>
</svg>
